<svg width="100" height="100" viewBox="0 0 100 100" fill="none" xmlns="http://www.w3.org/2000/svg">
<mask id="mask0_235_787" style="mask-type:luminance" maskUnits="userSpaceOnUse" x="0" y="0" width="100" height="100">
<path d="M100 0H0V100H100V0Z" fill="white"/>
</mask>
<g mask="url(#mask0_235_787)">
<path d="M61.0424 85.6363H40.6577V74.7418C37.2434 73.6726 34.0497 72.0774 31.1279 69.9902C28.2401 67.9369 25.7091 65.4592 23.6026 62.6254C21.4452 59.7406 19.7806 56.5672 18.6424 53.1903C17.4702 49.7114 16.8757 46.0629 16.8757 42.3466V5.03022C16.8757 4.09689 17.6401 3.33325 18.5744 3.33325H83.1257C84.0601 3.33325 84.8244 4.09689 84.8244 5.03022V42.3636C84.8244 46.0799 84.2299 49.7114 83.0577 53.2073C81.9196 56.5841 80.2549 59.7574 78.0976 62.6424C74.4452 67.5296 69.5019 71.3988 63.7942 73.7914C62.8431 74.1987 61.8747 74.5041 61.0424 74.7757V85.6702V85.6363ZM43.2059 83.0908H58.4942V72.8751L60.2779 72.3151C61.0424 72.0774 61.9427 71.7721 62.8091 71.4157C68.0921 69.1926 72.6786 65.6291 76.0591 61.0981C78.0466 58.4339 79.5924 55.4981 80.6456 52.3758C81.7327 49.1514 82.2764 45.7914 82.2764 42.3466V5.8787H19.4237V42.3636C19.4237 45.7914 19.9674 49.1684 21.0546 52.3926C22.1077 55.5151 23.6536 58.4508 25.6411 61.1151C27.5946 63.7454 29.9389 66.0363 32.6059 67.9369C35.3067 69.8544 38.2626 71.3307 41.4222 72.3321L43.2059 72.8921V83.1077V83.0908Z" fill="#000038"/>
<path d="M79.966 54.3611L80.6285 52.3758C81.7156 49.1514 82.2593 45.7914 82.2593 42.3466V16.8921H93.301C94.2351 16.8921 94.9996 17.6558 94.9996 18.5891V38.9526C94.9996 46.4193 89.4278 52.9018 82.0215 54.0388L79.949 54.3611H79.966ZM84.8073 19.4544V42.3636C84.8073 45.3163 84.4336 48.2351 83.6861 51.0521C88.7993 49.3551 92.4516 44.5018 92.4516 38.9696V19.4544H84.8073Z" fill="#000038"/>
<path d="M21.7172 54.3611L19.6447 54.0388C12.1364 52.9018 6.6665 46.5551 6.6665 38.9526V18.5891C6.6665 17.6558 7.43092 16.8921 8.36522 16.8921H19.4068V42.3466C19.4068 45.7744 19.9505 49.1514 21.0377 52.3758L21.7002 54.3611H21.7172ZM9.23157 19.4544V38.9696C9.23157 44.4848 12.8838 49.3551 17.997 51.0521C17.2495 48.2351 16.8758 45.3163 16.8758 42.3636V19.4544H9.23157Z" fill="#000038"/>
<path d="M76.3312 96.6667H25.3695C23.501 96.6667 21.9722 95.1393 21.9722 93.2727C21.9722 87.6558 26.5417 83.0908 32.1645 83.0908H41.932V85.6363H32.1645C27.9517 85.6363 24.5202 89.0642 24.5202 93.2727C24.5202 93.7478 24.8938 94.1212 25.3695 94.1212H76.3312C76.8067 94.1212 77.1805 93.7478 77.1805 93.2727C77.1805 89.0642 73.749 85.6363 69.5362 85.6363H59.7687V83.0908H69.5362C75.159 83.0908 79.7285 87.6558 79.7285 93.2727C79.7285 95.1393 78.1997 96.6667 76.3312 96.6667Z" fill="#000038"/>
<path d="M59.7685 83.0908H41.9319V85.6363H59.7685V83.0908Z" fill="#000038"/>
<path d="M53.5511 30.5187L50.8501 25.5974L48.1491 30.5187C47.5206 31.6557 46.4335 32.4362 45.1765 32.6569L39.6556 33.6411L43.4776 37.5611C44.395 38.5114 44.8196 39.8011 44.6498 41.1077L43.9023 46.5381L49.0495 44.1114C49.6101 43.8399 50.2386 43.7041 50.8671 43.7041C51.4956 43.7041 52.1241 43.8399 52.6848 44.1114L57.8318 46.5381L57.0845 41.1077C56.8976 39.8011 57.3223 38.5114 58.2565 37.5611L62.0786 33.6411L56.5578 32.6569C55.2838 32.4362 54.1966 31.6557 53.5851 30.5187H53.5511Z" fill="#000038"/>
<path d="M50.85 16.9092C39.5875 16.9092 30.4653 26.0218 30.4653 37.2727C30.4653 48.5237 39.5875 57.6363 50.85 57.6363C62.1125 57.6363 71.2347 48.5237 71.2347 37.2727C71.2347 26.0218 62.1125 16.9092 50.85 16.9092ZM65.0003 34.2692L60.057 39.343C59.6833 39.7163 59.5135 40.2425 59.5983 40.7515L60.5667 47.743C60.7535 49.0837 59.3775 50.0848 58.1545 49.5078L51.5975 46.4025C51.1388 46.1818 50.6122 46.1818 50.1535 46.4025L43.5965 49.5078C42.3733 50.0848 40.9975 49.0837 41.1843 47.743L42.1525 40.7515C42.2205 40.2255 42.0507 39.7163 41.6938 39.343L36.7507 34.2692C35.7993 33.3018 36.326 31.6558 37.668 31.4182L44.7685 30.1625C45.2782 30.0775 45.7198 29.7552 45.9577 29.314L49.406 23.0352C49.7288 22.4412 50.3063 22.1527 50.901 22.1527C51.4955 22.1527 52.073 22.4412 52.3958 23.0352L55.8442 29.314C56.099 29.7722 56.5237 30.0775 57.0333 30.1625L64.134 31.4182C65.476 31.6558 66.0025 33.3018 65.0513 34.2692H65.0003Z" fill="#000038"/>
</g>
</svg>
