<svg width="100" height="100" viewBox="0 0 100 100" fill="none" xmlns="http://www.w3.org/2000/svg">
<path d="M80.531 21.9935V36.9082C80.531 38.0467 77.8688 40.4885 70.5315 42.5672C63.0443 44.6955 53.0283 45.867 42.3467 45.867C31.665 45.867 21.6657 44.6955 14.1618 42.5672C6.92427 40.505 4.22892 38.0962 4.16235 36.9412V40.8019C6.891 42.8642 11.167 44.2832 13.463 44.943C21.1832 47.1374 31.4322 48.3417 42.33 48.3417C51.8303 48.3417 60.8315 47.4179 68.1023 45.735L70.5148 43.5077C71.7626 42.3694 73.7925 42.3859 75.0238 43.5077L75.1403 43.6232C77.0037 42.8972 78.9837 41.9569 80.4977 40.8019V36.9082H82.9935V17.4565C82.9935 19.1229 82.095 20.6407 80.4977 21.977L80.531 21.9935Z" fill="#000038"/>
<path d="M4.16239 36.9081V21.9934C2.56514 20.6406 1.66669 19.1392 1.66669 17.4729V36.9081C1.66669 36.9081 1.66669 36.9411 1.66669 36.9576V36.9081H4.16239Z" fill="#000038"/>
<path d="M57.6204 84.9025L55.2412 84.1437C51.1315 84.5397 46.789 84.754 42.3634 84.754C31.715 84.754 21.6989 83.5827 14.1785 81.4378C6.84112 79.3425 4.17904 76.9173 4.17904 75.7788V60.2372C2.69825 59.1318 1.66669 57.8283 1.66669 56.3435V75.7788C1.66669 80.0025 9.91915 82.8072 13.4631 83.8137C21.2164 86.008 31.4654 87.2288 42.3467 87.2288C48.2699 87.2288 54.0267 86.8493 59.3009 86.173C58.8849 85.579 58.3192 85.1335 57.6039 84.9025H57.6204Z" fill="#000038"/>
<path d="M80.531 40.8019V48.0119C80.714 48.0614 80.897 48.1439 81.0967 48.1604C81.0633 48.1604 81.1632 48.1604 81.263 48.1604H81.6125L83.0267 48.1109V36.9082C83.0267 38.3767 81.9952 39.68 80.531 40.8019Z" fill="#000038"/>
<path d="M80.531 40.8019C81.9952 39.68 83.0267 38.3932 83.0267 36.9082H80.531V40.8019Z" fill="#000038"/>
<path d="M42.3467 67.777C44.443 67.777 46.4895 67.7275 48.5194 67.645L47.754 66.4407C47.5045 66.0612 47.3547 65.6322 47.2882 65.2033C45.6577 65.2528 44.0105 65.3023 42.33 65.3023C31.6485 65.3023 21.6324 64.1308 14.1452 62.0025C6.80783 59.9072 4.14575 57.482 4.14575 56.3435V60.2372C6.87439 62.2995 11.1504 63.7183 13.4464 64.3783C21.1499 66.5727 31.4155 67.777 42.33 67.777H42.3467Z" fill="#000038"/>
<path d="M4.16239 40.8019C2.71489 39.6966 1.69997 38.4263 1.66669 36.9578V56.3436H4.16239V40.8019Z" fill="#000038"/>
<path d="M4.16239 40.8019V36.9412V36.9082H1.66669V36.9577C1.68332 38.4097 2.69825 39.6965 4.16239 40.8019Z" fill="#000038"/>
<path d="M4.16239 60.2372V56.3435H1.66669C1.66669 57.8283 2.69825 59.1318 4.16239 60.2372Z" fill="#000038"/>
<path d="M80.531 21.9935V17.473C80.531 22.1915 64.8413 27.4545 42.3467 27.4545C19.852 27.4545 4.16235 22.1915 4.16235 17.4565V21.977C10.2852 27.1575 26.6903 29.9129 42.3467 29.9129C58.003 29.9129 74.4081 27.1575 80.531 21.977V21.9935Z" fill="#000038"/>
<path d="M42.3467 7.47478C64.858 7.47478 80.531 12.7378 80.531 17.4565H83.0267C83.0267 9.35562 62.0629 5 42.3467 5C22.6307 5 1.66669 9.37212 1.66669 17.4565H4.16239C4.16239 12.7378 19.852 7.47478 42.3467 7.47478Z" fill="#000038"/>
<path d="M4.16239 21.9934V17.4729H1.66669C1.66669 19.1392 2.56514 20.6571 4.16239 21.9934Z" fill="#000038"/>
<path d="M80.531 21.9934C82.1282 20.6406 83.0267 19.1392 83.0267 17.4729H80.531V21.9934Z" fill="#000038"/>
<path d="M80.531 48.0117V50.5524C79.333 50.3544 78.3015 49.876 77.4696 49.1335L73.36 45.3389C73.0605 45.0749 72.5446 45.0584 72.212 45.3554L68.119 49.117C67.0375 50.107 65.6233 50.6514 64.1591 50.6514H63.9761L58.3525 50.4204C57.9031 50.4204 57.5371 50.7339 57.4873 51.1464L56.7386 56.7889C56.672 57.3334 56.5223 57.8447 56.306 58.3562L56.1563 58.6697C55.7735 59.4122 55.2245 60.072 54.559 60.5835L50.0666 64.0647C49.7506 64.3122 49.6675 64.7742 49.867 65.1042C49.0185 65.1537 48.1533 65.1867 47.2881 65.2197C47.1051 64.0812 47.5543 62.8769 48.536 62.1179L53.0283 58.6367C53.361 58.3727 53.6605 58.0262 53.8935 57.6469L53.9433 57.5314C54.1098 57.1684 54.2261 56.8384 54.2595 56.4754L55.0081 50.8164C55.2245 49.183 56.6553 47.9457 58.3191 47.9457L64.026 48.1767H64.1591C64.991 48.1767 65.8063 47.8632 66.422 47.3022L68.1023 45.7514C69.1838 45.5039 70.2153 45.2399 71.2136 44.9594C72.2451 44.6624 73.6595 44.217 75.1735 43.623L79.1666 47.3022C79.5493 47.6487 80.0318 47.8632 80.531 48.0117Z" fill="#000038"/>
<path d="M94.7565 71.3076C94.3073 72.0336 94.1575 72.9081 94.3405 73.7495L95.5552 79.359C95.9212 81.0088 94.9728 82.6588 93.3423 83.1866L87.9848 84.919C87.1363 85.183 86.4542 85.744 86.0548 86.536L83.4427 91.535C82.8603 92.6568 81.729 93.3333 80.481 93.3333C80.0818 93.3333 79.6825 93.2508 79.2332 93.0858L74.0755 90.941C73.2602 90.611 72.345 90.611 71.4965 90.941L66.3887 93.0693C65.9062 93.2508 65.5068 93.3333 65.1075 93.3333C63.8597 93.3333 62.7117 92.6568 62.1293 91.5515L59.5338 86.536C59.4672 86.4205 59.384 86.305 59.3008 86.173C60.1993 86.0575 61.0812 85.942 61.963 85.7935L64.3588 90.4131C64.4918 90.677 64.7913 90.8585 65.1075 90.8585C65.1575 90.8585 65.2738 90.842 65.457 90.776L70.5482 88.6641C71.2637 88.3673 72.029 88.2188 72.7943 88.2188C73.5597 88.2188 74.3083 88.3673 75.0238 88.6641L80.165 90.7925C80.6642 90.974 81.0468 90.7595 81.2298 90.3966L83.8253 85.414C84.5242 84.0446 85.722 83.0216 87.2195 82.5598L92.577 80.844C92.9762 80.712 93.2092 80.316 93.126 79.887L91.8948 74.2775C91.5787 72.7926 91.8448 71.2746 92.6435 69.9878L95.7048 65.1373C95.9378 64.7908 95.8547 64.3288 95.5218 64.0813L91.0297 60.5836C89.7983 59.6268 89.033 58.2738 88.8333 56.7725L88.0847 51.1465C88.0347 50.734 87.6687 50.4205 87.2693 50.4205L83.0267 50.5855V48.1273L87.1363 47.9458C88.9332 47.9458 90.3475 49.1831 90.5637 50.8165L91.3125 56.459C91.4288 57.317 91.8615 58.0923 92.5603 58.6368L97.0525 62.118C98.4002 63.141 98.733 65.0053 97.8178 66.4571L94.7565 71.3076Z" fill="#000038"/>
<path d="M60.2492 83.5663C58.6187 83.7973 56.9382 83.9787 55.2245 84.1437L52.263 83.2033C50.6158 82.6754 49.6508 81.0089 50.0335 79.3591L51.2313 73.7496C51.431 72.9082 51.2813 72.0338 50.8155 71.3078L48.5193 67.6616C49.4678 67.6121 50.4162 67.5626 51.3645 67.4966L52.9285 69.9879C53.7437 71.2747 53.9933 72.7928 53.6772 74.2776L52.4627 79.8871C52.3628 80.3161 52.6123 80.7121 53.0283 80.8441L58.3692 82.5599C59.0678 82.7743 59.6835 83.1208 60.2492 83.5663Z" fill="#000038"/>
<path d="M75.1735 43.6231L75.057 43.5076C73.8258 42.3858 71.796 42.3858 70.5482 43.5076L68.1357 45.735C69.2172 45.4875 70.2487 45.2235 71.247 44.943C72.2785 44.646 73.6928 44.2006 75.1902 43.6231H75.1735Z" fill="#000038"/>
<path d="M61.963 85.7935C61.0812 85.942 60.1993 86.0575 59.3008 86.173C58.9015 85.579 58.3192 85.1335 57.6038 84.919L55.2245 84.1437C56.9382 83.9787 58.6187 83.7972 60.2492 83.5662C60.8648 84.0612 61.3807 84.6882 61.7633 85.414L61.963 85.7935Z" fill="#000038"/>
<path d="M83.0267 48.1272V50.5854L81.4295 50.6514C81.313 50.6514 81.2132 50.6514 81.1133 50.6349H80.947C80.7972 50.6184 80.6642 50.5854 80.531 50.5524V48.0117C80.714 48.0777 80.8803 48.1437 81.08 48.1767H81.0967C81.0967 48.1767 81.13 48.1602 81.1467 48.1602C81.1798 48.1602 81.2132 48.1767 81.263 48.1767H81.6125L83.0267 48.1272Z" fill="#000038"/>
<path d="M51.3645 67.4964C50.4161 67.5624 49.4678 67.6119 48.5193 67.6614L47.754 66.4571C47.5045 66.0611 47.3713 65.6486 47.2881 65.2198C48.1533 65.1868 49.0185 65.1537 49.867 65.1042V65.1373L51.3645 67.4964Z" fill="#000038"/>
<path d="M83.0267 59.4122C82.7772 59.1152 82.5108 58.8512 82.228 58.5707C81.6957 58.0427 81.1467 57.5479 80.531 57.1189C80.4645 57.0694 80.3812 57.0199 80.3147 56.9704C79.8822 56.6899 79.4495 56.4094 78.9837 56.1619C77.1368 55.1885 75.0238 54.644 72.7943 54.644C66.738 54.644 61.6302 58.6532 60.0163 64.1307C59.7833 64.9722 59.617 65.83 59.5338 66.7045C59.5005 67.084 59.4838 67.4634 59.4838 67.8429C59.4838 70.3672 60.1993 72.7265 61.4305 74.7229C63.6433 78.3195 67.5367 80.7449 72.029 80.9922C72.2785 81.0087 72.5282 81.0417 72.7943 81.0417C76.8707 81.0417 80.5143 79.2269 82.9602 76.3562C84.9235 74.0629 86.1047 71.0932 86.1047 67.8429C86.1047 64.5927 84.94 61.7054 83.0267 59.4122ZM79.9653 64.0482L72.395 74.2774L65.7398 67.7109C65.2573 67.2325 65.2573 66.457 65.7398 65.962C66.2223 65.4837 67.0208 65.4837 67.5033 65.962L72.0955 70.4992L77.9522 62.5799C78.3513 62.0354 79.1333 61.9199 79.6992 62.3159C80.2482 62.7284 80.3647 63.5039 79.9653 64.0482Z" fill="#000038"/>
</svg>
