<svg width="100" height="100" viewBox="0 0 100 100" fill="none" xmlns="http://www.w3.org/2000/svg">
<mask id="mask0_20_3588" style="mask-type:luminance" maskUnits="userSpaceOnUse" x="0" y="-1" width="100" height="101">
<path d="M100 -0.000244141H0V99.9995H100V-0.000244141Z" fill="white"/>
</mask>
<g mask="url(#mask0_20_3588)">
<path d="M57.4998 44.3327C57.4998 45.2532 56.7537 45.9993 55.8332 45.9993C54.9127 45.9993 54.1665 45.2532 54.1665 44.3327C54.1665 43.4121 54.9127 42.666 55.8332 42.666C56.7537 42.666 57.4998 43.4121 57.4998 44.3327Z" fill="#000038" stroke="#000038" stroke-width="1.9685"/>
<path d="M79.1663 44.3327C79.1663 45.2532 78.4202 45.9993 77.4997 45.9993C76.5791 45.9993 75.833 45.2532 75.833 44.3327C75.833 43.4121 76.5791 42.666 77.4997 42.666C78.4202 42.666 79.1663 43.4121 79.1663 44.3327Z" fill="#000038" stroke="#000038" stroke-width="1.9685"/>
<path d="M55.4626 55.2283L55.4579 55.2191C55.3585 55.0254 55.427 54.7765 55.6562 54.662L55.6641 54.6578C55.8443 54.5653 56.1031 54.6293 56.224 54.861C58.3826 59.1737 62.7196 61.8498 67.5335 61.8498C72.3473 61.8498 76.6504 59.1903 78.8091 54.9285C78.9107 54.7331 79.1565 54.6429 79.3773 54.7453C79.5878 54.8587 79.6591 55.107 79.5588 55.3025L79.5568 55.3065C77.2491 59.8588 72.637 62.6831 67.5335 62.6831H67.5168C62.3658 62.6831 57.7548 59.8285 55.4626 55.2283Z" fill="#000038" stroke="#000038" stroke-width="1.9685"/>
<path d="M38.8663 93.8761C38.7625 93.9632 38.6347 94.0229 38.4993 94.0495H38.3332C38.273 94.0495 38.2505 94.0487 38.2437 94.0479L38.209 94.0382L38.1718 94.031L4.1665 87.5769V6.20728L38.5425 15.5693L38.5445 15.5698C38.9159 15.6744 39.1665 16.0074 39.1665 16.3666V93.2334C39.1665 93.489 39.0575 93.7189 38.8692 93.8737L38.8663 93.8761ZM5.83002 86.2165L5.67804 87.0189L37.3447 93.0189L38.3332 93.206V92.2003V16.9999V16.3631L37.7187 16.1959L6.05197 7.57919L4.99984 7.2929V8.38331V85.1939V86.2003V86.2165H5.83002Z" fill="#000038" stroke="#000038" stroke-width="1.9685"/>
<path d="M39.583 35.4415V31.1402C43.3874 26.7253 48.485 23.4595 54.2915 21.9425C48.0202 24.6911 42.8433 29.4681 39.583 35.4415Z" fill="#000038" stroke="#000038" stroke-width="1.9685"/>
<path d="M54.3328 78.4005C48.5092 76.8882 43.3965 73.6172 39.583 69.192V64.89C42.8507 70.8753 48.0433 75.654 54.3328 78.4005Z" fill="#000038" stroke="#000038" stroke-width="1.9685"/>
<path d="M66.267 78.4819C66.3751 78.4895 66.5113 78.4989 66.6516 78.4989C82.2786 78.4989 94.985 65.7926 94.985 50.1656C94.985 34.5387 82.2786 21.8322 66.6516 21.8322C66.6449 21.8322 66.6383 21.8322 66.6315 21.8322C66.5185 21.8322 66.3888 21.8322 66.2499 21.8378L66.2168 21.0099C66.3623 21.0033 66.5053 20.9989 66.6516 20.9989C82.7245 20.9989 95.8181 34.0926 95.8181 50.1656C95.8181 66.235 82.731 79.3262 66.6628 79.3323C66.5183 79.3321 66.3771 79.3278 66.2335 79.3212L66.267 78.4819Z" fill="#000038" stroke="#000038" stroke-width="1.9685"/>
<path d="M65.431 78.4319L65.833 78.4488V86.8326C65.833 87.289 65.4562 87.6664 64.9997 87.6664H38.333V57.671L39.3402 57.5485C42.5228 69.3558 53.1578 77.9102 65.431 78.4319ZM39.1663 86.0164H39.9997V86.8326H64.1663H64.9997V85.9995V80.0326V79.2661L64.2357 79.2023C54.144 78.36 45.278 72.2673 40.7403 63.4675L39.1663 63.8494V85.1664V85.9995V86.0164Z" fill="#000038" stroke="#000038" stroke-width="1.9685"/>
<path d="M38.3332 16.9993V16.3624L37.7187 16.1952L4.1665 7.06249V5.99927H64.9998C65.4563 5.99927 65.8332 6.37617 65.8332 6.83257V21.8832L65.4318 21.8999C53.142 22.4218 42.5223 30.9766 39.3404 42.7836L38.3332 42.6611V16.9993ZM12.7165 6.83257L12.4979 8.47007L38.5425 15.5519L38.5446 15.5526C38.9159 15.6572 39.1665 15.9901 39.1665 16.3493V36.4826L40.7405 36.8646C45.2782 28.0648 54.1442 21.9721 64.2359 21.1298L64.9998 21.066V20.2993V7.66596V6.83257H64.1665H12.7165Z" fill="#000038" stroke="#000038" stroke-width="1.9685"/>
<path d="M64.568 79.2183C52.046 78.3189 41.3365 69.312 38.3552 57.0704L38.333 56.87L38.366 43.1995C41.3617 30.9816 52.0595 22.01 64.5675 21.0966L64.6008 21.9304C52.4692 22.8089 42.1127 31.5089 39.1905 43.3489L39.1662 43.4472V43.5486V56.7819V56.8833L39.1905 56.9816C42.113 68.8228 52.4705 77.5056 64.6008 78.3991L64.568 79.2183Z" fill="#000038" stroke="#000038" stroke-width="1.9685"/>
<path d="M32.9167 57.2493C32.6935 57.2493 32.5 57.0558 32.5 56.8326V43.4993C32.5 43.2763 32.6935 43.0826 32.9167 43.0826C33.1398 43.0826 33.3333 43.2763 33.3333 43.4993V56.8326C33.3333 57.0558 33.1398 57.2493 32.9167 57.2493Z" fill="#000038" stroke="#000038" stroke-width="1.9685"/>
</g>
</svg>
