<svg width="100" height="100" viewBox="0 0 100 100" fill="none" xmlns="http://www.w3.org/2000/svg">
<path d="M75.8411 41.5652C75.8411 41.5652 75.8081 41.5652 75.775 41.5652L70.1372 23.6926C70.8812 22.9982 71.2945 22.0558 71.2945 21.0638C71.2945 19.0632 69.6742 17.443 67.6737 17.443C66.1857 17.443 64.863 18.3524 64.3174 19.7412H34.855C34.3094 18.3524 33.0033 17.443 31.4988 17.443C29.4982 17.443 27.878 19.0632 27.878 21.0638C27.878 22.1716 28.3905 23.2132 29.2502 23.891L23.3478 41.5816C21.4961 41.7636 20.0742 43.2846 20.0742 45.1694C20.0742 46.9054 21.3142 48.3768 23.0172 48.7076L26.919 66.1832C25.8113 66.828 25.15 68.0019 25.15 69.275C25.15 71.2755 26.7702 72.8958 28.7707 72.8958C29.399 72.8958 30.0108 72.7304 30.5729 72.4164L40.0961 78.8478C40.0961 78.947 40.0795 79.0296 40.0795 79.1288C40.0795 81.1296 41.6998 82.7496 43.7004 82.7496C45.0065 82.7496 46.1969 82.0552 46.8417 80.8976H53.5046C54.1494 82.0384 55.3233 82.7496 56.646 82.7496C58.6465 82.7496 60.2668 81.1296 60.2668 79.1288C60.2668 78.947 60.2668 78.7816 60.2337 78.5998L69.079 72.466C69.6081 72.747 70.1867 72.8958 70.7654 72.8958C72.7659 72.8958 74.3862 71.2755 74.3862 69.275C74.3862 68.1011 73.8241 67.0264 72.8652 66.3486L76.2214 48.7572C78.0566 48.5752 79.462 47.0376 79.462 45.1694C79.462 43.1688 77.8417 41.5486 75.8411 41.5486V41.5652ZM32.3254 70.0024L37.1532 68.2996C37.7814 69.0932 38.7238 69.5726 39.7489 69.6388L41.6172 76.186C41.4353 76.3182 41.27 76.467 41.1046 76.6323L32.1436 70.5646C32.2097 70.3828 32.2758 70.2008 32.3089 70.0024H32.3254ZM43.3697 67.2248H55.8193C56.1004 68.0184 56.6459 68.6963 57.3899 69.1427L56.1169 75.5742C54.5793 75.8056 53.3723 76.996 53.1078 78.5336H47.2716C46.9905 76.9134 45.6182 75.6568 43.9814 75.5412L42.1132 68.9774C42.7084 68.5476 43.1382 67.9524 43.3862 67.258L43.3697 67.2248ZM59.7873 69.5891C60.7793 69.4403 61.6555 68.8782 62.2011 68.0516L67.1446 69.3576C67.1446 69.804 67.2604 70.2339 67.4422 70.6472L59.0929 76.4504C58.911 76.2852 58.7126 76.1364 58.5142 76.0206L59.8038 69.5726L59.7873 69.5891ZM67.9052 67.0596L62.8294 65.7204C62.6806 63.8686 61.11 62.4136 59.2417 62.4136C57.7041 62.4136 56.3484 63.4056 55.8358 64.844H43.3862C42.8902 63.4056 41.518 62.4136 39.9804 62.4136C37.9798 62.4136 36.3596 64.034 36.3596 66.0344L31.9948 67.572C31.4657 66.58 30.4902 65.9022 29.366 65.7204L25.4806 48.3272C25.7452 48.1784 25.9932 47.9966 26.2081 47.7982L39.534 54.3288C39.534 54.3288 39.534 54.395 39.534 54.4446C39.534 56.4452 41.1542 58.0654 43.1548 58.0654C43.998 58.0654 44.8081 57.7678 45.4529 57.2222L45.9324 57.4536C45.9324 57.4536 45.9324 57.5032 45.9324 57.5198C45.9324 59.5204 47.5526 61.1406 49.5532 61.1406C51.5537 61.1406 53.174 59.5204 53.174 57.5198L53.8849 57.156C54.5462 57.7348 55.3729 58.0488 56.2492 58.0488C58.2497 58.0488 59.8699 56.4286 59.8699 54.428C59.8699 54.362 59.8699 54.3124 59.8699 54.2628L73.3446 47.7156C73.51 47.8808 73.6918 48.0296 73.8902 48.162L70.5505 65.6708C69.5254 65.7368 68.583 66.2494 67.9382 67.076L67.9052 67.0596ZM48.9745 39.6472H51.3883C51.6859 40.8212 52.5622 41.78 53.7196 42.1768L54.5462 51.204C53.3393 51.8158 52.5788 53.0558 52.5788 54.4116C52.5788 54.61 52.5953 54.7918 52.6283 55.0068L52.2646 55.1886C51.5868 54.362 50.5617 53.8824 49.5035 53.8824C48.4454 53.8824 47.47 54.3454 46.7756 55.139L46.6433 55.0728C46.6929 54.8414 46.7094 54.6264 46.7094 54.4116C46.7094 53.0724 45.9654 51.8488 44.7916 51.2206L46.0812 42.2926C47.47 42.0446 48.6108 41.003 48.958 39.6308L48.9745 39.6472ZM72.2369 45.4836L58.8614 51.9812C58.3654 51.4356 57.7041 51.0552 56.9766 50.89L56.1665 42.1108C56.8774 41.8296 57.4892 41.3502 57.9025 40.7054L72.2204 44.938C72.2204 44.938 72.2204 45.0868 72.2204 45.1528C72.2204 45.2686 72.2203 45.3844 72.2369 45.4836ZM42.3942 50.89C41.6337 51.0552 40.9393 51.4356 40.4268 52.0308L27.2993 45.5992C27.3158 45.4504 27.3324 45.3016 27.3324 45.1528C27.3324 45.0536 27.3324 44.9544 27.3158 44.8552L42.3777 40.6062C42.6918 41.1518 43.1548 41.5982 43.7004 41.8958L42.3942 50.89ZM73.2123 42.6894L58.4646 38.3412C58.382 37.6468 58.1174 37.002 57.671 36.4728L66.7974 24.5524C67.1777 24.6516 67.4918 24.7012 67.8556 24.668L73.4769 42.4414C73.3777 42.524 73.295 42.6068 73.2123 42.6894ZM55.5547 35.2164C55.3233 35.1668 55.0918 35.1502 54.8934 35.1502C53.4881 35.1502 52.1985 35.9934 51.6033 37.283H48.7595C48.0486 35.6958 46.263 34.77 44.4774 35.3156L34.6236 22.9156C34.7393 22.7006 34.8385 22.4856 34.9212 22.2376H64.2678C64.3835 22.5848 64.5489 22.899 64.7638 23.1966L55.5547 35.2328V35.2164ZM41.9313 38.1924L26.2742 42.6068C26.1254 42.458 25.9436 42.3092 25.7617 42.1768L31.6145 24.6516C31.9948 24.6516 32.375 24.5688 32.7388 24.4366L42.51 36.7374C42.2124 37.1672 42.014 37.6632 41.9313 38.1924Z" fill="#0C254B"/>
<path d="M14.287 3.91956H5.29285C4.36698 3.91956 3.60645 4.68009 3.60645 5.60596V14.6001C3.60645 15.2779 4.16858 15.8401 4.84645 15.8401C5.52431 15.8401 6.08645 15.2779 6.08645 14.6001V6.39956H14.287C14.9648 6.39956 15.527 5.83743 15.527 5.15956C15.527 4.48169 14.9648 3.91956 14.287 3.91956Z" fill="#0C254B"/>
<path d="M94.292 3.91956H85.2976C84.62 3.91956 84.0576 4.48169 84.0576 5.15956C84.0576 5.83743 84.62 6.39956 85.2976 6.39956H93.4984V14.6001C93.4984 15.2779 94.0608 15.8401 94.7384 15.8401C95.416 15.8401 95.9784 15.2779 95.9784 14.6001V5.60596C95.9784 4.68009 95.2176 3.91956 94.292 3.91956Z" fill="#0C254B"/>
<path d="M94.7384 84.3704C94.0608 84.3704 93.4984 84.9328 93.4984 85.6104V93.8112H85.2976C84.62 93.8112 84.0576 94.3728 84.0576 95.0512C84.0576 95.7288 84.62 96.2912 85.2976 96.2912H94.292C95.2176 96.2912 95.9784 95.5304 95.9784 94.6048V85.6104C95.9784 84.9328 95.416 84.3704 94.7384 84.3704Z" fill="#0C254B"/>
<path d="M14.287 93.8112H6.08645V85.6104C6.08645 84.9328 5.52431 84.3704 4.84645 84.3704C4.16858 84.3704 3.60645 84.9328 3.60645 85.6104V94.6048C3.60645 95.5304 4.36698 96.2912 5.29285 96.2912H14.287C14.9648 96.2912 15.527 95.7288 15.527 95.0512C15.527 94.3728 14.9648 93.8112 14.287 93.8112Z" fill="#0C254B"/>
</svg>
