<svg width="100" height="101" viewBox="0 0 100 101" fill="none" xmlns="http://www.w3.org/2000/svg">
<path d="M46.1651 84.0831C36.3818 84.0831 27.1651 80.2666 20.2318 73.35C13.3152 66.4166 9.49854 57.2 9.49854 47.4166C9.49854 37.6333 13.3152 28.4166 20.2318 21.5C27.1485 14.5833 36.3651 10.75 46.1651 10.75C66.3818 10.75 82.8322 27.2 82.8322 47.4166C82.8322 49.6333 82.6322 51.85 82.2322 54.0166C82.1152 54.6666 81.5322 55.0833 80.8483 55.0333C79.5985 54.8833 78.4485 54.3666 77.5151 53.5166L73.3985 49.7C73.0985 49.4166 72.5818 49.4166 72.2485 49.7L68.1485 53.5166C67.0651 54.5166 65.6485 55.0666 64.1818 55.0666H63.9985L58.3651 54.8333C57.9151 54.8333 57.5651 55.15 57.5151 55.5666L56.7651 61.2666C56.6985 61.8666 56.5151 62.45 56.2485 63.0166C56.2485 63.0666 56.2151 63.1166 56.1818 63.15C55.7985 63.9 55.2318 64.5833 54.5818 65.1L50.0818 68.6166C49.7485 68.8666 49.6651 69.35 49.8818 69.7L52.9485 74.6C53.7485 75.8833 54.0151 77.4166 53.6985 78.9166L52.8818 82.6831C52.7651 83.1831 52.3651 83.5831 51.8485 83.65C49.9318 83.9331 48.0318 84.0831 46.1818 84.0831H46.1651ZM46.1651 13.25C37.0485 13.25 28.4651 16.8 21.9985 23.2666C15.5485 29.7166 11.9985 38.3 11.9985 47.4166C11.9985 56.5333 15.5485 65.1166 21.9985 71.5833C28.4651 78.0333 37.0485 81.5831 46.1651 81.5831C47.6151 81.5831 49.1151 81.4831 50.6151 81.3L51.2485 78.3833C51.4318 77.5166 51.2818 76.65 50.8318 75.9166L47.7651 71.0166C46.8651 69.5666 47.1818 67.6833 48.5318 66.6333L53.0318 63.1166C53.3818 62.8333 53.6818 62.4833 53.9151 62.0833C53.9151 62.05 53.9318 62.0166 53.9485 61.9833C54.1318 61.6166 54.2318 61.3 54.2818 60.9166L55.0318 55.2166C55.2485 53.5666 56.6651 52.3166 58.3318 52.3166L64.0485 52.55H64.1818C65.0318 52.55 65.8318 52.2333 66.4485 51.6666L70.5651 47.85C71.8151 46.7 73.8485 46.7166 75.0985 47.85L79.2151 51.6666C79.4485 51.8833 79.7151 52.0666 79.9985 52.2C80.2318 50.6166 80.3318 49.0166 80.3318 47.4166C80.3318 28.5833 64.9985 13.25 46.1651 13.25Z" fill="#0C254B"/>
<path fill-rule="evenodd" clip-rule="evenodd" d="M58.3651 54.8333L63.9985 55.0666H64.1818C65.6485 55.0666 67.0651 54.5166 68.1485 53.5166L72.2485 49.7C72.5818 49.4166 73.0985 49.4166 73.3985 49.7L77.5151 53.5166C78.4485 54.3666 79.5985 54.8833 80.8483 55.0333C81.5322 55.0833 82.1152 54.6666 82.2322 54.0166C82.6322 51.85 82.8322 49.6333 82.8322 47.4166C82.8322 27.2 66.3818 10.75 46.1651 10.75C36.3651 10.75 27.1485 14.5833 20.2318 21.5C13.3152 28.4166 9.49854 37.6333 9.49854 47.4166C9.49854 57.2 13.3152 66.4166 20.2318 73.35C27.1651 80.2666 36.3818 84.0831 46.1651 84.0831H46.1818C48.0318 84.0831 49.9318 83.9331 51.8485 83.65C52.3651 83.5831 52.7651 83.1831 52.8818 82.6831L53.6985 78.9166C54.0151 77.4166 53.7485 75.8833 52.9485 74.6L49.8818 69.7C49.6651 69.35 49.7485 68.8666 50.0818 68.6166L54.5818 65.1C55.2318 64.5833 55.7985 63.9 56.1818 63.15C56.2151 63.1166 56.2485 63.0666 56.2485 63.0166C56.5151 62.45 56.6985 61.8666 56.7651 61.2666L57.5151 55.5666C57.5651 55.15 57.9151 54.8333 58.3651 54.8333ZM54.2818 60.9166L55.0318 55.2166C55.2485 53.5666 56.6651 52.3166 58.3318 52.3166L64.0485 52.55H64.1818C65.0318 52.55 65.8318 52.2333 66.4485 51.6666L70.5651 47.85C71.8151 46.7 73.8485 46.7166 75.0985 47.85L79.2151 51.6666C79.4485 51.8833 79.7151 52.0666 79.9985 52.2C80.076 51.6746 80.1387 51.1475 80.188 50.6189L80.1882 50.6173C80.1973 50.5183 80.2062 50.4193 80.2143 50.3203C80.2951 49.3548 80.3318 48.3858 80.3318 47.4166C80.3318 28.5833 64.9985 13.25 46.1651 13.25C37.0485 13.25 28.4651 16.8 21.9985 23.2666C15.5485 29.7166 11.9985 38.3 11.9985 47.4166C11.9985 56.5333 15.5485 65.1166 21.9985 71.5833C28.4651 78.0333 37.0485 81.5831 46.1651 81.5831C47.6151 81.5831 49.1151 81.4831 50.6151 81.3L51.2485 78.3833C51.4318 77.5166 51.2818 76.65 50.8318 75.9166L47.7651 71.0166C46.8651 69.5666 47.1818 67.6833 48.5318 66.6333L53.0318 63.1166C53.3818 62.8333 53.6818 62.4833 53.9151 62.0833C53.9151 62.05 53.9318 62.0166 53.9485 61.9833C54.1318 61.6166 54.2318 61.3 54.2818 60.9166Z" fill="#0C254B"/>
<path d="M32.8319 44.0831C34.6729 44.0831 36.1652 42.5908 36.1652 40.7498C36.1652 38.9088 34.6729 37.4165 32.8319 37.4165C30.9909 37.4165 29.4985 38.9088 29.4985 40.7498C29.4985 42.5908 30.9909 44.0831 32.8319 44.0831Z" fill="#0C254B"/>
<path fill-rule="evenodd" clip-rule="evenodd" d="M32.8319 42.4165C33.7524 42.4165 34.4985 41.6703 34.4985 40.7498C34.4985 39.8293 33.7524 39.0831 32.8319 39.0831C31.9114 39.0831 31.1652 39.8293 31.1652 40.7498C31.1652 41.6703 31.9114 42.4165 32.8319 42.4165ZM36.1652 40.7498C36.1652 42.5908 34.6729 44.0831 32.8319 44.0831C30.9909 44.0831 29.4985 42.5908 29.4985 40.7498C29.4985 38.9088 30.9909 37.4165 32.8319 37.4165C34.6729 37.4165 36.1652 38.9088 36.1652 40.7498Z" fill="#0C254B"/>
<path d="M59.4984 44.083C61.3394 44.083 62.8317 42.5907 62.8317 40.7497C62.8317 38.9087 61.3394 37.4164 59.4984 37.4164C57.6574 37.4164 56.165 38.9087 56.165 40.7497C56.165 42.5907 57.6574 44.083 59.4984 44.083Z" fill="#0C254B"/>
<path fill-rule="evenodd" clip-rule="evenodd" d="M59.4984 42.4164C60.4189 42.4164 61.165 41.6702 61.165 40.7497C61.165 39.8292 60.4189 39.083 59.4984 39.083C58.5779 39.083 57.8317 39.8292 57.8317 40.7497C57.8317 41.6702 58.5779 42.4164 59.4984 42.4164ZM62.8317 40.7497C62.8317 42.5907 61.3394 44.083 59.4984 44.083C57.6574 44.083 56.165 42.5907 56.165 40.7497C56.165 38.9087 57.6574 37.4164 59.4984 37.4164C61.3394 37.4164 62.8317 38.9087 62.8317 40.7497Z" fill="#0C254B"/>
<path d="M46.1993 66.0502C42.4826 66.0502 38.866 65.0168 35.7326 63.0835C32.5826 61.1335 30.0493 58.3502 28.3826 55.0335C28.066 54.4168 28.316 53.6668 28.9493 53.3502C29.5826 53.0335 30.316 53.2835 30.6326 53.9168C32.0826 56.8168 34.2993 59.2502 37.0493 60.9668C42.1993 64.1668 49.0326 64.3835 54.4826 61.4835C55.0993 61.1502 55.8493 61.3835 56.166 62.0002C56.4993 62.6168 56.2659 63.3668 55.6493 63.6835C52.7326 65.2335 49.4659 66.0668 46.1993 66.0668V66.0502Z" fill="#0C254B"/>
<path fill-rule="evenodd" clip-rule="evenodd" d="M46.1993 66.0668C46.4665 66.0668 46.7336 66.0613 47.0006 66.0502C47.2894 66.0383 47.5779 66.0198 47.8659 65.995C50.5679 65.7623 53.2291 64.9696 55.6493 63.6835C56.2659 63.3668 56.4993 62.6168 56.166 62.0002C55.8493 61.3835 55.0993 61.1502 54.4826 61.4835C49.0326 64.3835 42.1993 64.1668 37.0493 60.9668C34.2993 59.2502 32.0826 56.8168 30.6326 53.9168C30.316 53.2835 29.5826 53.0335 28.9493 53.3502C28.316 53.6668 28.066 54.4168 28.3826 55.0335C30.0493 58.3502 32.5826 61.1335 35.7326 63.0835C38.866 65.0168 42.4826 66.0502 46.1993 66.0502V66.0668Z" fill="#0C254B"/>
<path d="M80.5311 98.1669C80.1311 98.1669 79.7311 98.083 79.2811 97.9169L74.1144 95.7499C73.2977 95.4169 72.3811 95.4169 71.5311 95.7499L66.4144 97.8999C65.9311 98.083 65.5311 98.1669 65.1311 98.1669C63.8811 98.1669 62.7311 97.4669 62.1644 96.3669L59.5644 91.2999C59.1644 90.4999 58.4811 89.9169 57.6311 89.6499L52.2644 87.9169C50.6144 87.383 49.6644 85.7169 50.0311 84.033L51.2478 78.3667C51.4311 77.5 51.2811 76.6333 50.8311 75.9L47.7644 71C46.8644 69.55 47.1811 67.6667 48.5311 66.6167L53.0311 63.1C53.3811 62.8333 53.6811 62.4833 53.8978 62.1L53.9478 61.9833C54.1311 61.6167 54.2311 61.3 54.2811 60.9167L55.0311 55.2167C55.2478 53.5667 56.6644 52.3167 58.3311 52.3167L64.0478 52.55H64.1811C65.0311 52.55 65.8311 52.2333 66.4478 51.6667L70.5644 47.85C71.8144 46.7 73.8477 46.7167 75.0977 47.85L79.2144 51.6667C79.7478 52.15 80.4144 52.45 81.148 52.5333C81.1141 52.5333 81.2141 52.5333 81.3141 52.5333H81.6641L87.198 52.3C88.998 52.3 90.4311 53.55 90.6311 55.2L91.3811 60.9C91.498 61.7667 91.9311 62.55 92.6311 63.1L97.1311 66.6167C98.4811 67.65 98.8141 69.5333 97.898 71L94.8311 75.9C94.3811 76.6333 94.2311 77.5167 94.4141 78.3667L95.6311 84.033C95.998 85.6999 95.048 87.3669 93.4141 87.8999L88.048 89.633C87.198 89.8999 86.5141 90.483 86.1141 91.2669L83.5141 96.333C82.9311 97.4499 81.7811 98.1499 80.5311 98.1499V98.1669ZM72.8311 92.9999C73.5978 92.9999 74.3644 93.1499 75.0644 93.4499L80.1978 95.5999C80.698 95.783 81.0811 95.5669 81.2811 95.1999L83.8811 90.1669C84.5811 88.783 85.7811 87.7499 87.2811 87.283L92.6311 85.5499C93.0311 85.4169 93.2641 85.0169 93.1811 84.5999L91.9641 78.9167C91.648 77.4167 91.898 75.8833 92.7141 74.6L95.7811 69.7C96.0141 69.3333 95.9311 68.8833 95.598 68.6333L91.0811 65.1C89.8641 64.1333 89.0811 62.7667 88.898 61.25L88.148 55.55C88.098 55.1333 87.7311 54.8167 87.3141 54.8167L81.4641 55.05C81.3641 55.05 81.2641 55.05 81.148 55.05H80.9811C79.5811 54.8833 78.4311 54.3667 77.5144 53.5167L73.3978 49.7C73.0978 49.4167 72.5811 49.4167 72.2478 49.7L68.1478 53.5167C67.0644 54.5167 65.6478 55.0667 64.1811 55.0667H63.9977L58.3644 54.8333C57.9144 54.8333 57.5644 55.15 57.5144 55.5667L56.7644 61.2667C56.6978 61.8167 56.5478 62.3333 56.3311 62.85V62.8833L56.1978 63.1667C55.8144 63.9167 55.2478 64.6 54.5978 65.1167L50.0978 68.6333C49.7644 68.8833 49.6811 69.3667 49.8978 69.7167L52.9644 74.6167C53.7644 75.9 54.0311 77.4333 53.7144 78.9333L52.4978 84.5999C52.3978 85.033 52.6311 85.433 53.0644 85.5669L58.4144 87.2999C59.8978 87.7669 61.1144 88.7999 61.8144 90.1999L64.4144 95.233C64.5644 95.5169 64.8478 95.683 65.1644 95.683C65.2311 95.683 65.3311 95.683 65.5144 95.5999L70.6144 93.4669C71.3478 93.1669 72.0978 93.0169 72.8644 93.0169L72.8311 92.9999Z" fill="#0C254B"/>
<path fill-rule="evenodd" clip-rule="evenodd" d="M74.1144 95.7499L79.2811 97.9169C79.6149 98.0403 79.9212 98.1177 80.2204 98.1499C80.3245 98.1612 80.4279 98.1669 80.5311 98.1669V98.1499C81.7811 98.1499 82.9311 97.4499 83.5141 96.333L86.1141 91.2669C86.5141 90.483 87.198 89.8999 88.048 89.633L93.4141 87.8999C95.048 87.3669 95.998 85.6999 95.6311 84.033L94.4141 78.3667C94.2311 77.5167 94.3811 76.6333 94.8311 75.9L97.898 71C98.8141 69.5333 98.4811 67.65 97.1311 66.6167L92.6311 63.1C91.9311 62.55 91.498 61.7667 91.3811 60.9L90.6311 55.2C90.4311 53.55 88.998 52.3 87.198 52.3L81.6641 52.5333H81.148C81.1456 52.533 81.1432 52.5328 81.1415 52.5325C80.4104 52.4482 79.7462 52.1486 79.2144 51.6667L75.0977 47.85C73.8477 46.7167 71.8144 46.7 70.5644 47.85L66.4478 51.6667C65.8311 52.2333 65.0311 52.55 64.1811 52.55H64.0478L58.3311 52.3167C56.6644 52.3167 55.2478 53.5667 55.0311 55.2167L54.2811 60.9167C54.2311 61.3 54.1311 61.6167 53.9478 61.9833L53.8978 62.1C53.6811 62.4833 53.3811 62.8333 53.0311 63.1L48.5311 66.6167C47.1811 67.6667 46.8644 69.55 47.7644 71L50.8311 75.9C51.2811 76.6333 51.4311 77.5 51.2478 78.3667L50.0311 84.033C49.6644 85.7169 50.6144 87.383 52.2644 87.9169L57.6311 89.6499C58.4811 89.9169 59.1644 90.4999 59.5644 91.2999L62.1644 96.3669C62.7311 97.4669 63.8811 98.1669 65.1311 98.1669C65.5311 98.1669 65.9311 98.083 66.4144 97.8999L71.5311 95.7499C72.3811 95.4169 73.2977 95.4169 74.1144 95.7499ZM81.4641 55.05L87.3141 54.8167C87.7311 54.8167 88.098 55.1333 88.148 55.55L88.898 61.25C89.0811 62.7667 89.8641 64.1333 91.0811 65.1L95.598 68.6333C95.9311 68.8833 96.0141 69.3333 95.7811 69.7L92.7141 74.6C91.898 75.8833 91.648 77.4167 91.9641 78.9167L93.1811 84.5999C93.2641 85.0169 93.0311 85.4169 92.6311 85.5499L87.2811 87.283C85.7811 87.7499 84.5811 88.783 83.8811 90.1669L81.2811 95.1999C81.0811 95.5669 80.698 95.783 80.1978 95.5999L75.0644 93.4499C74.4945 93.2056 73.8804 93.0612 73.2581 93.0153C73.1299 93.0064 73.0012 93.0008 72.8728 92.9999C72.8699 92.9999 72.8672 92.9999 72.8644 92.9999C72.8534 92.9999 72.8422 92.9999 72.8311 92.9999L72.8644 93.0169C72.8534 93.0169 72.8422 93.0169 72.8311 93.0169C72.8282 93.0169 72.8256 93.0169 72.8228 93.0169C72.6912 93.0177 72.5604 93.0233 72.4299 93.033C71.8139 93.079 71.2087 93.2233 70.6144 93.4669L65.5144 95.5999C65.3311 95.683 65.2311 95.683 65.1644 95.683C64.8478 95.683 64.5644 95.5169 64.4144 95.233L61.8144 90.1999C61.1144 88.7999 59.8978 87.7669 58.4144 87.2999L53.0644 85.5669C52.6311 85.433 52.3978 85.033 52.4978 84.5999L53.7144 78.9333C54.0311 77.4333 53.7644 75.9 52.9644 74.6167L49.8978 69.7167C49.6811 69.3667 49.7644 68.8833 50.0978 68.6333L54.5978 65.1167C55.2478 64.6 55.8144 63.9167 56.1978 63.1667L56.3311 62.8833V62.85C56.5478 62.3333 56.6978 61.8167 56.7644 61.2667L57.5144 55.5667C57.5644 55.15 57.9144 54.8333 58.3644 54.8333L63.9977 55.0667H64.1811C65.6478 55.0667 67.0644 54.5167 68.1478 53.5167L72.2478 49.7C72.5811 49.4167 73.0978 49.4167 73.3978 49.7L77.5144 53.5167C78.4311 54.3667 79.5811 54.8833 80.9811 55.05H81.4641ZM81.1415 53.3833V52.5908L81.052 53.3785C81.0633 53.3802 81.0746 53.3817 81.0859 53.3833H81.1415ZM55.9337 61.1328C55.9337 61.1327 55.9336 61.133 55.9337 61.1328ZM73.9728 49.0797L73.3978 49.7L73.9786 49.085L78.0812 52.8889L78.0894 52.8964L78.0953 52.9016C78.8922 53.6239 79.8862 54.0674 80.9593 54.1894" fill="#0C254B"/>
<path d="M79.0319 60.6168C77.1819 59.6335 75.0652 59.0835 72.8319 59.0835C65.4652 59.0835 59.4985 65.0501 59.4985 72.4168C59.4985 74.9668 60.2152 77.3501 61.4485 79.3668C63.7985 83.1999 68.0152 85.7499 72.8319 85.7499C80.1985 85.7499 86.1652 79.7835 86.1652 72.4168C86.1652 67.2835 83.2822 62.8501 79.0319 60.6168ZM80.0152 68.5835L72.4485 78.9168L65.7819 72.2835C65.2985 71.8001 65.2985 71.0001 65.7819 70.5168C66.2652 70.0335 67.0652 70.0335 67.5485 70.5168L72.1485 75.1001L77.9985 67.1001C78.3985 66.5501 79.1819 66.4168 79.7485 66.8335C80.2985 67.2501 80.4319 68.0168 80.0152 68.5835Z" fill="#0C254B"/>
<path fill-rule="evenodd" clip-rule="evenodd" d="M78.2497 62.0885C76.6382 61.232 74.7897 60.7501 72.8319 60.7501C66.3857 60.7501 61.1652 65.9706 61.1652 72.4168C61.1652 74.6508 61.7924 76.7343 62.8701 78.4966C64.9301 81.8564 68.6197 84.0838 72.8319 84.0838C79.2781 84.0838 84.4983 78.8629 84.4983 72.4168C84.4983 67.9268 81.9806 64.0488 78.2565 62.0921L78.2497 62.0885ZM61.4485 79.3668C60.2152 77.3501 59.4985 74.9668 59.4985 72.4168C59.4985 65.0501 65.4652 59.0835 72.8319 59.0835C75.0652 59.0835 77.1819 59.6335 79.0319 60.6168C83.2822 62.8501 86.1652 67.2835 86.1652 72.4168C86.1652 79.7835 80.1985 85.7499 72.8319 85.7499C68.0152 85.7499 63.7985 83.1999 61.4485 79.3668ZM72.6477 81.4661L64.6034 73.462C63.4692 72.3278 63.4692 70.4724 64.6034 69.3383C65.7371 68.2046 67.591 68.2041 68.7256 69.3366L68.7271 69.3383L71.9494 72.549L76.6507 66.1198L76.6524 66.1174C77.5914 64.829 79.419 64.5224 80.7362 65.4906L80.7459 65.4978L80.7547 65.5049C81.9975 66.446 82.3386 68.2349 81.3596 69.569L81.358 69.5708L72.6477 81.4661ZM80.0152 68.5835C80.4319 68.0168 80.2985 67.2501 79.7485 66.8335C79.1819 66.4168 78.3985 66.5501 77.9985 67.1001L72.1485 75.1001L67.5485 70.5168C67.0652 70.0335 66.2652 70.0335 65.7819 70.5168C65.2985 71.0001 65.2985 71.8001 65.7819 72.2835L72.4485 78.9168L80.0152 68.5835Z" fill="#0C254B"/>
<path d="M2.83204 14.0835C2.1487 14.0835 1.58203 13.5168 1.58203 12.8335V4.50017C1.58203 3.5835 2.33204 2.8335 3.2487 2.8335H11.582C12.2653 2.8335 12.832 3.40017 12.832 4.0835C12.832 4.76683 12.2653 5.3335 11.582 5.3335H4.08204V12.8335C4.08204 13.5168 3.51537 14.0835 2.83204 14.0835Z" fill="#0C254B"/>
<path fill-rule="evenodd" clip-rule="evenodd" d="M4.08204 12.8335C4.08204 13.5168 3.51537 14.0835 2.83204 14.0835C2.1487 14.0835 1.58203 13.5168 1.58203 12.8335V4.50017C1.58203 3.5835 2.33204 2.8335 3.2487 2.8335H11.582C12.2653 2.8335 12.832 3.40017 12.832 4.0835C12.832 4.76683 12.2653 5.3335 11.582 5.3335H4.08204V12.8335Z" fill="#0C254B"/>
<path d="M11.582 92H3.2487C2.33204 92 1.58203 91.25 1.58203 90.3331V82C1.58203 81.3162 2.1487 80.7499 2.83204 80.7499C3.51537 80.7499 4.08204 81.3162 4.08204 82V89.5H11.582C12.2653 89.5 12.832 90.0662 12.832 90.75C12.832 91.4331 12.2653 92 11.582 92Z" fill="#0C254B"/>
<path fill-rule="evenodd" clip-rule="evenodd" d="M11.582 89.5C12.2653 89.5 12.832 90.0662 12.832 90.75C12.832 91.4331 12.2653 92 11.582 92H3.2487C2.33204 92 1.58203 91.25 1.58203 90.3331V82C1.58203 81.3162 2.1487 80.7499 2.83204 80.7499C3.51537 80.7499 4.08204 81.3162 4.08204 82V89.5H11.582Z" fill="#0C254B"/>
<path d="M89.4985 14.0835C88.8154 14.0835 88.2485 13.5168 88.2485 12.8335V5.3335H80.7485C80.0652 5.3335 79.4985 4.76683 79.4985 4.0835C79.4985 3.40017 80.0652 2.8335 80.7485 2.8335H89.0815C89.9985 2.8335 90.7485 3.5835 90.7485 4.50017V12.8335C90.7485 13.5168 90.1815 14.0835 89.4985 14.0835Z" fill="#0C254B"/>
<path fill-rule="evenodd" clip-rule="evenodd" d="M80.7485 5.3335C80.0652 5.3335 79.4985 4.76683 79.4985 4.0835C79.4985 3.40017 80.0652 2.8335 80.7485 2.8335H89.0815C89.9985 2.8335 90.7485 3.5835 90.7485 4.50017V12.8335C90.7485 13.5168 90.1815 14.0835 89.4985 14.0835C88.8154 14.0835 88.2485 13.5168 88.2485 12.8335V5.3335H80.7485Z" fill="#0C254B"/>
</svg>
