<svg width="100" height="100" viewBox="0 0 100 100" fill="none" xmlns="http://www.w3.org/2000/svg">
<mask id="mask0_20_3562" style="mask-type:luminance" maskUnits="userSpaceOnUse" x="0" y="0" width="100" height="100">
<path d="M100 0H0V100H100V0Z" fill="white"/>
</mask>
<g mask="url(#mask0_20_3562)">
<mask id="mask1_20_3562" style="mask-type:luminance" maskUnits="userSpaceOnUse" x="0" y="0" width="100" height="101">
<path d="M100 0H0V100H100V0Z" fill="white"/>
</mask>
<g mask="url(#mask1_20_3562)">
<path d="M83.3324 39.9996H63.3325C61.9594 39.9996 60.8325 38.8729 60.8325 37.4996V17.4996C60.8325 16.1266 61.9594 14.9996 63.3325 14.9996H83.3324C84.7058 14.9996 85.8324 16.1266 85.8324 17.4996V37.4996C85.8324 38.8729 84.7058 39.9996 83.3324 39.9996ZM63.3325 15.833C62.4057 15.833 61.6658 16.5728 61.6658 17.4996V37.4996C61.6658 38.4265 62.4057 39.1663 63.3325 39.1663H83.3324C84.2591 39.1663 84.9994 38.4265 84.9994 37.4996V17.4996C84.9994 16.5728 84.2591 15.833 83.3324 15.833H63.3325Z" fill="#000038" stroke="#000038" stroke-width="2"/>
<path d="M63.0627 39.3276L63.0561 39.3192C62.7305 38.9035 62.6205 38.3825 62.7432 37.881C63.6352 34.2225 66.8997 31.6665 70.667 31.6665H76.0003C79.7675 31.6665 83.0321 34.222 83.924 37.8805C84.0434 38.37 83.9289 38.8985 83.6031 39.329C83.2853 39.7451 82.7523 39.9998 82.2168 39.9998H64.4503C63.9005 39.9998 63.3827 39.7468 63.0627 39.3276ZM63.541 38.0843L63.2882 39.1135L64.348 39.1165L82.2144 39.1665L82.4128 39.167L82.5894 39.0785L82.5918 39.0775L82.5942 39.0764L82.6007 39.0728L82.6216 39.062C82.6369 39.0539 82.6603 39.0412 82.6869 39.0258C82.7079 39.0135 82.7531 38.9867 82.8015 38.9506C82.8232 38.9345 82.8724 38.8964 82.9249 38.8393C82.9515 38.8108 82.9966 38.7581 83.0394 38.6835C83.0781 38.6156 83.1507 38.4683 83.1507 38.2665V38.165L83.1257 38.0665C82.3168 34.7931 79.382 32.4998 76.0003 32.4998H70.667C67.284 32.4998 64.3494 34.7943 63.541 38.0843ZM73.3336 29.1665C71.0439 29.1665 69.167 27.2897 69.167 24.9998C69.167 22.71 71.0439 20.8331 73.3336 20.8331C75.6233 20.8331 77.5003 22.71 77.5003 24.9998C77.5003 27.2897 75.6233 29.1665 73.3336 29.1665ZM73.3336 21.6665C71.49 21.6665 70.0003 23.1564 70.0003 24.9998C70.0003 26.8433 71.49 28.3331 73.3336 28.3331C75.1772 28.3331 76.667 26.8433 76.667 24.9998C76.667 23.1564 75.1772 21.6665 73.3336 21.6665Z" fill="#000038"/>
<path d="M82.5894 39.0785L82.4128 39.167L82.2144 39.1665L64.348 39.1165L63.2882 39.1135L63.541 38.0843C64.3494 34.7943 67.284 32.4998 70.667 32.4998H76.0003C79.382 32.4998 82.3168 34.7931 83.1257 38.0665L83.1507 38.165V38.2665C83.1507 38.4683 83.0781 38.6156 83.0394 38.6835C82.9966 38.7581 82.9515 38.8108 82.9249 38.8393C82.8724 38.8964 82.8232 38.9345 82.8015 38.9506C82.7531 38.9867 82.7079 39.0135 82.6869 39.0258C82.6603 39.0412 82.6369 39.0539 82.6216 39.062L82.6007 39.0728L82.5942 39.0764L82.5918 39.0775L82.5894 39.0785ZM82.5894 39.0785L82.2168 38.3331M63.0627 39.3276L63.0561 39.3192C62.7305 38.9035 62.6205 38.3825 62.7432 37.881C63.6352 34.2225 66.8997 31.6665 70.667 31.6665H76.0003C79.7675 31.6665 83.0321 34.222 83.924 37.8805C84.0434 38.37 83.9289 38.8985 83.6031 39.329C83.2853 39.7451 82.7523 39.9998 82.2168 39.9998H64.4503C63.9005 39.9998 63.3827 39.7468 63.0627 39.3276ZM73.3336 29.1665C71.0439 29.1665 69.167 27.2897 69.167 24.9998C69.167 22.71 71.0439 20.8331 73.3336 20.8331C75.6233 20.8331 77.5003 22.71 77.5003 24.9998C77.5003 27.2897 75.6233 29.1665 73.3336 29.1665ZM73.3336 21.6665C71.49 21.6665 70.0003 23.1564 70.0003 24.9998C70.0003 26.8433 71.49 28.3331 73.3336 28.3331C75.1772 28.3331 76.667 26.8433 76.667 24.9998C76.667 23.1564 75.1772 21.6665 73.3336 21.6665Z" stroke="#000038" stroke-width="2"/>
<path d="M28.333 70.8416L28.3574 71.65H4.99935C4.54292 71.65 4.16602 71.2731 4.16602 70.8166V7.49999C4.16602 7.04352 4.54292 6.66663 4.99935 6.66663H94.9995C95.4559 6.66663 95.8326 7.04352 95.8326 7.49999V70.8333C95.8326 71.2898 95.4559 71.6666 94.9995 71.6666H71.6327V71.2333C71.6327 71.2333 71.6327 71.2244 71.6355 71.2043C71.636 71.2 71.6367 71.1955 71.6376 71.1903C71.6388 71.1818 71.6404 71.1718 71.6425 71.1593L71.648 71.1266L71.6546 71.0869L71.666 71.0189V70.95C71.666 58.8769 61.9635 49.15 49.9993 49.15C38.0387 49.15 28.3327 58.8735 28.3327 70.8166V70.8291L28.333 70.8416ZM72.4832 70.0288L72.5112 70.8333H73.316H94.1664H94.9995V70V8.33329V7.49999H94.1664H5.83268H4.99935V8.33329V70V70.8333H5.83268H26.6827H27.4875L27.5155 70.0288C27.9334 57.9931 37.8662 48.3333 49.9993 48.3333C62.1325 48.3333 72.0654 57.9931 72.4832 70.0288Z" fill="#000038" stroke="#000038" stroke-width="2"/>
<path d="M50.002 93.3407C38.1176 93.3407 28.2062 83.885 27.5493 72.0902L28.3843 72.0735C29.0408 83.4084 38.5598 92.4907 50.002 92.4907C61.4442 92.4907 70.9632 83.4084 71.6198 72.0735L72.4546 72.0902C71.7973 83.8705 61.8857 93.3407 50.002 93.3407Z" fill="#000038" stroke="#000038" stroke-width="2"/>
<path d="M28.3372 70.4055L27.5034 70.4279C27.7206 58.2079 37.7287 48.3335 49.9997 48.3335C62.2445 48.3335 72.2362 58.1657 72.4945 70.3497L71.6589 70.3832C71.352 58.5819 61.7704 49.1669 49.9997 49.1669C38.1822 49.1669 28.5659 58.6588 28.3372 70.4055Z" fill="#000038" stroke="#000038" stroke-width="2"/>
<path d="M54.8252 65.4432L49.5497 72.6577L45.6385 68.7607C45.6389 68.761 45.6382 68.7605 45.6385 68.7607C44.8297 67.9527 43.5019 67.9521 42.6932 68.7607C41.8845 69.5694 41.8845 70.8972 42.6932 71.706L42.6947 71.7073L49.3614 78.3407L50.0487 79.0246L50.6216 78.2424L58.1872 67.9103C58.1874 67.91 58.1869 67.9107 58.1872 67.9103C58.8783 66.9694 58.6599 65.6652 57.7428 64.9953C56.801 64.3028 55.4947 64.5236 54.8252 65.4432C54.8255 65.4428 54.825 65.4435 54.8252 65.4432ZM35.8325 70.8333C35.8325 63.0102 42.176 56.6666 49.9992 56.6666C57.8224 56.6666 64.1658 63.0102 64.1658 70.8333C64.1658 78.6565 57.8224 85.0003 49.9992 85.0003C42.176 85.0003 35.8325 78.6565 35.8325 70.8333Z" fill="#000038"/>
<path d="M54.8252 65.4432L49.5497 72.6577L45.6385 68.7607M54.8252 65.4432C55.4947 64.5236 56.801 64.3028 57.7428 64.9953C58.6599 65.6652 58.8783 66.9694 58.1872 67.9103M54.8252 65.4432C54.825 65.4435 54.8255 65.4428 54.8252 65.4432ZM45.6385 68.7607C45.6382 68.7605 45.6389 68.761 45.6385 68.7607ZM45.6385 68.7607C44.8297 67.9527 43.5019 67.9521 42.6932 68.7607C41.8845 69.5694 41.8845 70.8972 42.6932 71.706L42.6947 71.7073L49.3614 78.3407L50.0487 79.0246L50.6216 78.2424L58.1872 67.9103M58.1872 67.9103C58.1869 67.9107 58.1874 67.91 58.1872 67.9103ZM35.8325 70.8333C35.8325 63.0102 42.176 56.6666 49.9992 56.6666C57.8224 56.6666 64.1658 63.0102 64.1658 70.8333C64.1658 78.6565 57.8224 85.0003 49.9992 85.0003C42.176 85.0003 35.8325 78.6565 35.8325 70.8333Z" stroke="#000038" stroke-width="2"/>
<path d="M43.3332 29.1663H13.3332C13.1101 29.1663 12.9165 28.9727 12.9165 28.7496C12.9165 28.5264 13.1101 28.3329 13.3332 28.3329H43.3332C43.5563 28.3329 43.7498 28.5264 43.7498 28.7496C43.7498 28.9727 43.5563 29.1663 43.3332 29.1663Z" fill="#000038" stroke="#000038" stroke-width="2"/>
<path d="M26.6665 20.8333H13.3332C13.1101 20.8333 12.9165 20.6397 12.9165 20.4166C12.9165 20.1934 13.1101 19.9999 13.3332 19.9999H26.6665C26.8896 19.9999 27.0832 20.1934 27.0832 20.4166C27.0832 20.6397 26.8896 20.8333 26.6665 20.8333Z" fill="#000038" stroke="#000038" stroke-width="2"/>
<path d="M43.3332 37.5001H13.3332C13.1101 37.5001 12.9165 37.3066 12.9165 37.0834C12.9165 36.8603 13.1101 36.6667 13.3332 36.6667H43.3332C43.5563 36.6667 43.7498 36.8603 43.7498 37.0834C43.7498 37.3066 43.5563 37.5001 43.3332 37.5001Z" fill="#000038" stroke="#000038" stroke-width="2"/>
</g>
</g>
</svg>
