<?xml version="1.0" encoding="UTF-8"?>
<svg id="Layer_1" xmlns="http://www.w3.org/2000/svg" xmlns:xlink="http://www.w3.org/1999/xlink" version="1.1" viewBox="0 0 50.02 45.79">
  <!-- Generator: Adobe Illustrator 29.5.1, SVG Export Plug-In . SVG Version: 2.1.0 Build 141)  -->
  <defs>
    <style>
      .st0 {
        fill: none;
      }

      .st1 {
        fill: #0c254b;
      }

      .st2 {
        clip-path: url(#clippath);
      }
    </style>
    <clipPath id="clippath">
      <rect class="st0" width="50" height="45.79"/>
    </clipPath>
  </defs>
  <g class="st2">
    <g>
      <path class="st1" d="M10.54,23.79c0-8.28,5.97-15.15,13.85-16.59-.98-.17-1.98-.28-3-.28-9.32,0-16.88,7.56-16.88,16.87s7.56,16.87,16.88,16.87c1.02,0,2.04-.11,3-.28-7.88-1.42-13.85-8.3-13.85-16.59Z"/>
      <path class="st1" d="M27.42,40.67c-9.3,0-16.88-7.56-16.88-16.87S18.12,6.92,27.42,6.92s16.87,7.56,16.87,16.87-7.56,16.87-16.87,16.87ZM27.42,8.73c-8.3,0-15.06,6.76-15.06,15.06s6.77,15.06,15.06,15.06,15.06-6.76,15.06-15.06-6.77-15.06-15.06-15.06Z"/>
      <path class="st1" d="M20.79,22.6c1,0,1.81-.81,1.81-1.81s-.81-1.81-1.81-1.81-1.81.81-1.81,1.81.81,1.81,1.81,1.81Z"/>
      <path class="st1" d="M34.03,22.6c1,0,1.81-.81,1.81-1.81s-.81-1.81-1.81-1.81-1.81.81-1.81,1.81.81,1.81,1.81,1.81Z"/>
      <path class="st1" d="M27.44,32.63c-3.59,0-6.84-2-8.45-5.22-.23-.45-.04-.98.4-1.21.45-.23.98-.04,1.21.4,1.3,2.61,3.87,4.25,6.82,4.21,2.89,0,5.5-1.61,6.8-4.18.23-.45.77-.62,1.21-.4.45.23.62.77.4,1.21-1.62,3.19-4.84,5.16-8.41,5.16l.02.02Z"/>
      <path class="st1" d="M.91,8.13c-.49,0-.91-.4-.91-.91V1.21C0,.55.55,0,1.21,0h6.03C7.73,0,8.14.4,8.14.91s-.4.91-.91.91H1.81v5.42c0,.49-.4.91-.91.91v-.02Z"/>
      <path class="st1" d="M49.11,8.13c-.49,0-.91-.4-.91-.91V1.81h-5.42c-.49,0-.91-.4-.91-.91S42.27,0,42.78,0h6.03c.66,0,1.21.55,1.21,1.21v6.03c0,.49-.4.91-.91.91v-.02Z"/>
      <path class="st1" d="M48.81,45.79h-6.03c-.49,0-.91-.4-.91-.91s.4-.91.91-.91h5.42v-5.42c0-.49.4-.91.91-.91s.91.4.91.91v6.03c0,.66-.55,1.21-1.21,1.21Z"/>
      <path class="st1" d="M7.24,45.79H1.21c-.66,0-1.21-.55-1.21-1.21v-6.03c0-.49.4-.91.91-.91s.91.4.91.91v5.42h5.42c.49,0,.91.4.91.91s-.4.91-.91.91Z"/>
    </g>
  </g>
</svg>