<?xml version="1.0" encoding="UTF-8"?>
<svg id="Layer_1" xmlns="http://www.w3.org/2000/svg" version="1.1" viewBox="0 0 46.19 46.19">
  <!-- Generator: Adobe Illustrator 29.5.1, SVG Export Plug-In . SVG Version: 2.1.0 Build 141)  -->
  <defs>
    <style>
      .st0 {
        fill: #0c254b;
      }
    </style>
  </defs>
  <path class="st0" d="M36.12,18.82h-.03l-2.82-8.94c.37-.35.58-.82.58-1.31,0-1-.81-1.81-1.81-1.81-.74,0-1.4.45-1.68,1.15h-14.73c-.27-.69-.93-1.15-1.68-1.15-1,0-1.81.81-1.81,1.81,0,.55.26,1.07.69,1.41l-2.95,8.85c-.93.09-1.64.85-1.64,1.79,0,.87.62,1.6,1.47,1.77l1.95,8.74c-.55.32-.89.91-.89,1.55,0,1,.81,1.81,1.81,1.81.32,0,.62-.08.9-.24l4.76,3.22s0,.09,0,.14c0,1,.81,1.81,1.81,1.81.65,0,1.25-.35,1.57-.93h3.33c.32.57.91.93,1.57.93,1,0,1.81-.81,1.81-1.81,0-.09,0-.17-.02-.26l4.42-3.07c.26.14.55.21.84.21,1,0,1.81-.81,1.81-1.81,0-.59-.28-1.12-.76-1.46l1.68-8.8c.92-.09,1.62-.86,1.62-1.79,0-1-.81-1.81-1.81-1.81h0ZM14.36,33.04l2.41-.85c.31.4.78.64,1.3.67l.93,3.27c-.09.07-.17.14-.26.22l-4.48-3.03c.03-.09.07-.18.08-.28h0ZM19.88,31.65h6.22c.14.4.41.74.79.96l-.64,3.22c-.77.12-1.37.71-1.5,1.48h-2.92c-.14-.81-.83-1.44-1.64-1.5l-.93-3.28c.3-.21.51-.51.64-.86v-.02ZM28.09,32.83c.5-.07.93-.36,1.21-.77l2.47.65c0,.22.06.44.15.64l-4.17,2.9c-.09-.08-.19-.16-.29-.21l.64-3.22h0ZM32.15,31.57l-2.54-.67c-.07-.93-.86-1.65-1.79-1.65-.77,0-1.45.5-1.7,1.22h-6.23c-.25-.72-.93-1.22-1.7-1.22-1,0-1.81.81-1.81,1.81l-2.18.77c-.26-.5-.75-.83-1.31-.93l-1.94-8.7c.13-.07.26-.17.36-.26l6.66,3.27v.06c0,1,.81,1.81,1.81,1.81.42,0,.83-.15,1.15-.42l.24.12v.03c0,1,.81,1.81,1.81,1.81s1.81-.81,1.81-1.81l.36-.18c.33.29.74.45,1.18.45,1,0,1.81-.81,1.81-1.81v-.08l6.74-3.27c.08.08.17.16.27.22l-1.67,8.75c-.51.03-.98.29-1.31.7h-.02ZM22.68,17.86h1.21c.15.59.59,1.07,1.17,1.26l.41,4.51c-.6.31-.98.93-.98,1.6,0,.1,0,.19.03.3l-.18.09c-.34-.41-.85-.65-1.38-.65s-1.02.23-1.36.63l-.07-.03c.02-.12.03-.22.03-.33,0-.67-.37-1.28-.96-1.6l.65-4.46c.69-.12,1.26-.64,1.44-1.33h0ZM34.32,20.78l-6.69,3.25c-.25-.27-.58-.46-.94-.55l-.4-4.39c.36-.14.66-.38.87-.7l7.16,2.12v.11c0,.06,0,.12,0,.17ZM19.39,23.49c-.38.08-.73.27-.98.57l-6.56-3.22c0-.07.02-.15.02-.22,0-.05,0-.1,0-.15l7.53-2.12c.16.27.39.5.66.64l-.65,4.5ZM34.8,19.38l-7.37-2.17c-.04-.35-.17-.67-.4-.93l4.56-5.96c.19.05.35.07.53.06l2.81,8.89s-.09.08-.13.12ZM25.97,15.65c-.11-.02-.23-.03-.33-.03-.7,0-1.35.42-1.65,1.07h-1.42c-.36-.79-1.25-1.26-2.14-.98l-4.93-6.2c.06-.11.11-.21.15-.34h14.67c.06.17.14.33.25.48l-4.61,6.02h0ZM19.16,17.14l-7.83,2.21c-.07-.07-.17-.15-.26-.21l2.93-8.76c.19,0,.38-.04.56-.11l4.89,6.15c-.15.21-.25.46-.29.73Z"/>
  <path class="st0" d="M5.34,0H.84c-.46,0-.84.38-.84.84v4.5c0,.34.28.62.62.62s.62-.28.62-.62V1.24h4.1c.34,0,.62-.28.62-.62s-.28-.62-.62-.62Z"/>
  <path class="st0" d="M45.34,0h-4.5c-.34,0-.62.28-.62.62s.28.62.62.62h4.1v4.1c0,.34.28.62.62.62s.62-.28.62-.62V.84c0-.46-.38-.84-.84-.84Z"/>
  <path class="st0" d="M45.57,40.23c-.34,0-.62.28-.62.62v4.1h-4.1c-.34,0-.62.28-.62.62s.28.62.62.62h4.5c.46,0,.84-.38.84-.84v-4.5c0-.34-.28-.62-.62-.62Z"/>
  <path class="st0" d="M5.34,44.95H1.24v-4.1c0-.34-.28-.62-.62-.62s-.62.28-.62.62v4.5c0,.46.38.84.84.84h4.5c.34,0,.62-.28.62-.62s-.28-.62-.62-.62Z"/>
</svg>