<?xml version="1.0" encoding="UTF-8"?>
<svg id="Layer_1" xmlns="http://www.w3.org/2000/svg" xmlns:xlink="http://www.w3.org/1999/xlink" version="1.1" viewBox="0 0 50 50">
  <!-- Generator: Adobe Illustrator 29.5.1, SVG Export Plug-In . SVG Version: 2.1.0 Build 141)  -->
  <defs>
    <style>
      .st0 {
        fill: none;
      }

      .st1 {
        fill: #0c254b;
      }

      .st2 {
        clip-path: url(#clippath);
      }
    </style>
    <clipPath id="clippath">
      <rect class="st0" y="0" width="50" height="49.99"/>
    </clipPath>
  </defs>
  <g class="st2">
    <g>
      <path class="st1" d="M16.07,21.44c.99,0,1.8-.8,1.8-1.79s-.81-1.79-1.8-1.79-1.79.8-1.79,1.79.8,1.79,1.79,1.79Z"/>
      <path class="st1" d="M30.36,21.44c.99,0,1.79-.8,1.79-1.79s-.8-1.79-1.79-1.79-1.8.8-1.8,1.79.81,1.79,1.8,1.79Z"/>
      <path class="st1" d="M23.23,33.18c-4.08,0-7.73-2.25-9.54-5.89-.16-.34-.02-.73.3-.9.33-.17.73-.03.89.29,1.59,3.18,4.79,5.15,8.35,5.15,1.17,0,2.34-.22,3.43-.66.35-.14.73.03.87.38.14.35-.03.73-.38.87-1.26.5-2.58.76-3.92.76Z"/>
      <path class="st1" d="M23.21,42.85c-10.82,0-19.64-8.81-19.64-19.64S12.38,3.57,23.21,3.57s19.65,8.81,19.65,19.64c0,1.09-.1,2.2-.32,3.42l-.14.81-.77-.31c-1.33-.53-2.72-.8-4.13-.8-6.15,0-11.16,5.01-11.16,11.16,0,1.41.26,2.8.8,4.13l.3.77-.81.14c-1.2.21-2.32.32-3.42.32h0ZM23.21,4.91C13.12,4.91,4.91,13.12,4.91,23.21s8.21,18.3,18.3,18.3c.77,0,1.57-.06,2.4-.17-.41-1.25-.62-2.53-.62-3.85,0-6.89,5.6-12.5,12.51-12.5,1.3,0,2.59.21,3.85.62.11-.84.17-1.62.17-2.39,0-10.1-8.21-18.3-18.31-18.3Z"/>
      <path class="st1" d="M37.5,49.99c-5.14,0-9.69-3.09-11.61-7.87l1.25-.49c1.7,4.27,5.76,7.03,10.36,7.03,6.14,0,11.16-5.01,11.16-11.16,0-4.59-2.76-8.65-7.03-10.36l.49-1.25c4.77,1.9,7.87,6.47,7.87,11.61,0,6.89-5.6,12.5-12.51,12.5h.02Z"/>
      <path class="st1" d="M25.89,42.12c-.59-1.48-.9-3.04-.9-4.63,0-6.89,5.6-12.5,12.51-12.5,1.58,0,3.13.29,4.63.9l-.49,1.25c-1.33-.53-2.72-.8-4.13-.8-6.15,0-11.16,5.01-11.16,11.16,0,1.41.27,2.8.8,4.13l-1.25.49h-.01Z"/>
      <path class="st1" d="M37.5,29.46c-4.44,0-8.04,3.6-8.04,8.04s3.6,8.04,8.04,8.04,8.03-3.6,8.03-8.04-3.59-8.04-8.03-8.04ZM41.53,35.66l-4.06,5.54-3.57-3.56c-.27-.27-.27-.69,0-.95.26-.27.68-.27.95,0l2.46,2.45,3.14-4.28c.22-.29.63-.36.94-.14.29.22.36.64.14.94Z"/>
      <path class="st1" d="M.67,6.02c-.36,0-.67-.29-.67-.67V.9c0-.49.41-.9.9-.9h4.46c.37,0,.67.29.67.67s-.29.67-.67.67H1.34v4.02c0,.36-.29.67-.67.67h0Z"/>
      <path class="st1" d="M45.76,6.02c-.37,0-.67-.29-.67-.67V1.34h-4.02c-.37,0-.68-.29-.68-.67s.3-.67.68-.67h4.46c.49,0,.9.41.9.9v4.47c0,.36-.29.67-.67.67h0Z"/>
      <path class="st1" d="M5.36,46.43H.9c-.49,0-.9-.41-.9-.9v-4.47c0-.36.29-.67.67-.67s.67.29.67.67v4.02h4.02c.37,0,.67.29.67.67s-.29.67-.67.67Z"/>
    </g>
  </g>
</svg>