<?xml version="1.0" encoding="UTF-8"?>
<svg id="Layer_1" xmlns="http://www.w3.org/2000/svg" version="1.1" viewBox="0 0 24 24">
  <!-- Generator: Adobe Illustrator 29.1.0, SVG Export Plug-In . SVG Version: 2.1.0 Build 142)  -->
  <defs>
    <style>
      .st0 {
        fill: #1f1f1f;
      }
    </style>
  </defs>
  <path class="st0" d="M13,2.5v3h-2v-3h2ZM22,11.5v2h-3v-2h3ZM5,11.5v2H2v-2h3ZM6,4.6l2.1,2.1-1.4,1.4-2.1-2.1,1.4-1.4ZM18,4.6l1.4,1.4-2.1,2.1-1.4-1.4,2.1-2.1ZM12,7.5c1.4,0,2.6.5,3.5,1.5s1.5,2.2,1.5,3.5-.2,1.5-.5,2.2-.8,1.3-1.5,1.8v5h-6v-5c-.6-.5-1.1-1.1-1.5-1.8s-.5-1.4-.5-2.2c0-1.4.5-2.6,1.5-3.5s2.2-1.5,3.5-1.5ZM13,17.4c-.2,0-.3,0-.5,0s-.3,0-.5,0-.3,0-.5,0-.3,0-.5,0v2.1h2v-2.1ZM12,9.5c-.8,0-1.5.3-2.1.9s-.9,1.3-.9,2.1.3,1.5.9,2.1,1.3.9,2.1.9,1.5-.3,2.1-.9.9-1.3.9-2.1-.3-1.5-.9-2.1-1.3-.9-2.1-.9Z"/>
</svg>