<?xml version="1.0" encoding="UTF-8"?>
<svg id="Layer_1" xmlns="http://www.w3.org/2000/svg" version="1.1" viewBox="0 0 24 24">
  <!-- Generator: Adobe Illustrator 29.8.4, SVG Export Plug-In . SVG Version: 2.1.1 Build 6)  -->
  <defs>
    <style>
      .st0 {
        fill: #1f1f1f;
      }
    </style>
  </defs>
  <path class="st0" d="M13.2.6v3.6h-2.4V.6h2.4ZM24,11.4v2.4h-3.6v-2.4h3.6ZM3.6,11.4v2.4H0v-2.4h3.6ZM4.8,3.12l2.52,2.52-1.68,1.68-2.52-2.52s1.68-1.68,1.68-1.68ZM19.2,3.12l1.68,1.68-2.52,2.52-1.68-1.68s2.52-2.52,2.52-2.52ZM12,6.6c1.68,0,3.12.6,4.2,1.8s1.8,2.64,1.8,4.2-.24,1.8-.6,2.64-.96,1.56-1.8,2.16v6h-7.2v-6c-.72-.6-1.32-1.32-1.8-2.16s-.6-1.68-.6-2.64c0-1.68.6-3.12,1.8-4.2s2.64-1.8,4.2-1.8ZM13.2,18.48h-2.4v2.52h2.4v-2.52ZM12,9c-.96,0-1.8.36-2.52,1.08s-1.08,1.56-1.08,2.52.36,1.8,1.08,2.52,1.56,1.08,2.52,1.08,1.8-.36,2.52-1.08,1.08-1.56,1.08-2.52-.36-1.8-1.08-2.52-1.56-1.08-2.52-1.08Z"/>
</svg>