<svg width="100" height="100" viewBox="0 0 100 100" fill="none" xmlns="http://www.w3.org/2000/svg">
<mask id="mask0_235_2294" style="mask-type:luminance" maskUnits="userSpaceOnUse" x="0" y="0" width="100" height="100">
<path d="M100 0H0V100H100V0Z" fill="white"/>
</mask>
<g mask="url(#mask0_235_2294)">
<path d="M89.4772 3.33325H26.5687C22.5963 3.33325 19.3792 6.54607 19.3792 10.5127V44.6153H8.59477C6.61765 44.6153 5 46.2308 5 48.2051V93.0769C5 95.0513 6.61765 96.6666 8.59477 96.6666H31.9608C33.9378 96.6666 35.5555 95.0513 35.5555 93.0769H89.4772C93.4493 93.0769 96.6667 89.8641 96.6667 85.8974V10.5127C96.6667 6.54607 93.4493 3.33325 89.4772 3.33325ZM31.9608 93.9743H8.59477C8.0915 93.9743 7.69608 93.5794 7.69608 93.0769V48.2051C7.69608 47.7024 8.0915 47.3076 8.59477 47.3076H31.9608C32.464 47.3076 32.8595 47.7024 32.8595 48.2051V93.0769C32.8595 93.5794 32.464 93.9743 31.9608 93.9743ZM31.9608 44.6153H27.4673V12.3076C27.4673 11.8051 27.8627 11.4102 28.366 11.4102H87.6797C88.183 11.4102 88.5785 11.8051 88.5785 12.3076V76.9229C88.5785 77.4256 88.183 77.8204 87.6797 77.8204H35.5555V48.2051C35.5555 46.2308 33.9378 44.6153 31.9608 44.6153ZM93.9707 85.8974C93.9707 88.3743 91.9575 90.3846 89.4772 90.3846H35.5555V80.5128H87.6797C89.6568 80.5128 91.2745 78.8974 91.2745 76.9229V12.3076C91.2745 10.3333 89.6568 8.71787 87.6797 8.71787H28.366C26.3888 8.71787 24.7712 10.3333 24.7712 12.3076V44.6153H22.0752V10.5127C22.0752 8.03582 24.0882 6.02555 26.5687 6.02555H89.4772C91.9575 6.02555 93.9707 8.03582 93.9707 10.5127V85.8974Z" fill="#000038"/>
<path d="M58.9218 82.3076H57.1245C56.1318 82.3076 55.3271 83.1113 55.3271 84.1024V85.8975C55.3271 86.8886 56.1318 87.6923 57.1245 87.6923H58.9218C59.9145 87.6923 60.7193 86.8886 60.7193 85.8975V84.1024C60.7193 83.1113 59.9145 82.3076 58.9218 82.3076Z" fill="#000038"/>
<path d="M50.618 34.0076C53.0085 32.1409 55.8664 31.1538 58.904 31.1538C63.0919 31.1538 66.9562 33.0384 69.5445 36.3229C71.0004 38.1896 71.899 40.3614 72.2225 42.6769L70.0657 42.6051C69.868 42.6051 69.6882 42.6589 69.5265 42.7666C69.113 43.0538 69.0232 43.6103 69.3109 44.0229L72.7439 48.9409C72.7439 48.9409 72.8517 49.0666 72.9235 49.1204C73.301 49.4256 73.8762 49.3718 74.1817 48.9769L77.9382 44.3103C78.064 44.1666 78.136 43.9691 78.136 43.7718C78.136 43.2691 77.7585 42.8563 77.2732 42.8384L74.9725 42.7666C74.631 39.8051 73.5347 37.0229 71.7014 34.6538C68.6099 30.7051 63.9545 28.4436 58.9399 28.4436C55.3092 28.4436 51.8582 29.6281 48.9824 31.8718C48.3892 32.3204 48.2994 33.1819 48.7487 33.7563C49.198 34.3486 50.0429 34.4384 50.636 33.9896L50.618 34.0076Z" fill="#000038"/>
<path d="M40.4624 45.7105L42.8169 45.8002C43.0506 48.995 44.1829 52.0284 46.1781 54.5772C49.2696 58.5259 53.9247 60.7874 58.9394 60.7874C62.5162 60.7874 65.9132 59.6387 68.7711 57.4489C69.3642 57.0002 69.4721 56.1565 69.0227 55.5644C68.5734 54.972 67.7287 54.8644 67.1356 55.313C64.7629 57.1259 61.9231 58.095 58.9574 58.095C54.7696 58.095 50.9051 56.2105 48.3169 52.9259C46.7172 50.8797 45.8006 48.4565 45.5489 45.9079L47.6699 45.9797C47.8676 45.9797 48.0472 45.9259 48.2091 45.8182C48.6224 45.531 48.7124 44.9745 48.4247 44.5617L45.0097 39.6617C45.0097 39.6617 44.9019 39.536 44.8299 39.4822C44.4526 39.1772 43.8774 39.231 43.5717 39.6259L39.8152 44.2745C39.6894 44.4182 39.6176 44.6155 39.6176 44.813C39.6176 45.3155 39.9951 45.7284 40.4802 45.7464L40.4624 45.7105Z" fill="#000038"/>
</g>
</svg>
