<svg width="100" height="100" viewBox="0 0 100 100" fill="none" xmlns="http://www.w3.org/2000/svg">
<path d="M28.2166 24.5C22.7666 24.5 18.35 28.9167 18.35 34.3667C18.35 39.8167 22.7666 44.2333 28.2166 44.2333C33.6666 44.2333 38.0833 39.8167 38.0833 34.3667C38.0833 28.9167 33.6666 24.5 28.2166 24.5ZM34.8333 31.65L27.8666 41.15L21.7166 35.0333C21.2333 34.55 21.2333 33.75 21.7166 33.2667C22.2 32.7833 23 32.7833 23.4833 33.2667L27.5833 37.3333L32.8333 30.1667C33.2333 29.6167 34.0166 29.4833 34.5833 29.9C35.1333 30.3167 35.2666 31.0833 34.85 31.65H34.8333Z" fill="#000038"/>
<path d="M28.2166 50.3833C22.7666 50.3833 18.35 54.8 18.35 60.25C18.35 65.7 22.7666 70.1166 28.2166 70.1166C33.6666 70.1166 38.0833 65.7 38.0833 60.25C38.0833 54.8 33.6666 50.3833 28.2166 50.3833ZM34.8333 57.5333L27.8666 67.0333L21.7166 60.9166C21.2333 60.4333 21.2333 59.6333 21.7166 59.15C22.2 58.6666 23 58.65 23.4833 59.15L27.5833 63.2166L32.8333 56.05C33.2333 55.5 34.0166 55.3666 34.5833 55.7833C35.1333 56.2 35.2666 56.9666 34.85 57.5333H34.8333Z" fill="#000038"/>
<path d="M80 55.7833V16.6666C80 13.9166 77.75 11.6666 75 11.6666H63.3333C63.3333 9.83325 61.8333 8.33325 60 8.33325H51.4667C50.7 5.38325 48.05 3.33325 45 3.33325C41.95 3.33325 39.3 5.38325 38.5333 8.33325H30C28.1667 8.33325 26.6667 9.83325 26.6667 11.6666H15C12.25 11.6666 10 13.9166 10 16.6666V89.9999C10 92.7499 12.25 94.9999 15 94.9999H61.6833C64.3333 96.0999 67.1333 96.6666 70 96.6666C75.8 96.6666 81.25 94.4166 85.3167 90.3166C89.4167 86.2166 91.6667 80.7833 91.6667 74.9999C91.6667 66.9333 87.1167 59.4999 80 55.7833ZM30 10.8333H40.5L40.9667 8.96659C41.4333 7.13325 43.1 5.83325 45 5.83325C46.9 5.83325 48.5667 7.11659 49.0333 8.94992L49.5 10.8333H60C60.4667 10.8333 60.8333 11.1999 60.8333 11.6666V14.9999C60.8333 15.4666 60.4667 15.8333 60 15.8333H30C29.5333 15.8333 29.1667 15.4666 29.1667 14.9999V11.6666C29.1667 11.1999 29.5333 10.8333 30 10.8333ZM15 92.4999C13.6167 92.4999 12.5 91.3833 12.5 89.9999V16.6666C12.5 15.2833 13.6167 14.1666 15 14.1666H26.6667V14.9999C26.6667 16.8333 28.1667 18.3333 30 18.3333H60C61.8333 18.3333 63.3333 16.8333 63.3333 14.9999V14.1666H75C76.3833 14.1666 77.5 15.2833 77.5 16.6666V54.6666C77.5 54.6666 77.4167 54.6333 77.3667 54.6166C77.3167 54.5999 77.2667 54.5833 77.2333 54.5666C76.65 54.3499 76.05 54.1833 75.4333 54.0166C75.3 53.9833 75.1667 53.9666 75.05 53.9333C74.5333 53.8166 74.0167 53.6999 73.4833 53.6166C73.3 53.5833 73.1 53.5666 72.9167 53.5333C72.45 53.4666 71.9833 53.4166 71.5167 53.3833C71.2833 53.3833 71.0667 53.3499 70.8333 53.3499C70.4 53.3499 69.9667 53.3333 69.5333 53.3499C69.2833 53.3499 69.0333 53.3499 68.7833 53.3666C68.35 53.3833 67.9333 53.4333 67.5167 53.4833C67.2667 53.5166 67.0333 53.5333 66.7833 53.5666C66.3333 53.6333 65.8833 53.7333 65.4333 53.8166C65.2333 53.8666 65.0333 53.8999 64.8167 53.9499C64.25 54.0833 63.6833 54.2499 63.1333 54.4333H44.1833C43.5 54.4333 42.9333 54.9999 42.9333 55.6833C42.9333 56.3666 43.5 56.9333 44.1833 56.9333H58.0667C56.8667 57.7333 55.7333 58.6333 54.7 59.6499C53.9167 60.4333 53.25 61.2333 52.65 62.0499H44.1833C43.5 62.0499 42.9333 62.6166 42.9333 63.2999C42.9333 63.9833 43.5 64.5499 44.1833 64.5499H51.0333C49.2833 67.7166 48.35 71.2666 48.35 74.9666C48.35 80.7499 50.6 86.1833 54.7 90.2833C55.15 90.7333 55.6167 91.1499 56.1 91.5499C56.25 91.6833 56.4167 91.7999 56.5667 91.9333C56.8 92.1166 57.0167 92.2999 57.25 92.4666H15V92.4999ZM83.55 88.5499C79.95 92.1666 75.1333 94.1666 70 94.1666C67.3667 94.1666 64.8167 93.6333 62.4 92.5999C60.1667 91.6333 58.1667 90.2666 56.45 88.5499C52.8333 84.9333 50.8333 80.1166 50.8333 74.9999C50.8333 71.0499 52.0167 67.2499 54.2833 64.0333C54.9 63.1333 55.6 62.2999 56.45 61.4499C58.5 59.3999 61 57.8333 63.7 56.8999C64.25 56.6999 64.8167 56.5499 65.3833 56.3999C65.5333 56.3666 65.7 56.3333 65.8667 56.2999C66.2833 56.1999 66.7167 56.1166 67.1333 56.0666C67.3 56.0333 67.4833 56.0166 67.65 55.9999C68.0667 55.9499 68.4833 55.9166 68.9167 55.8833C69.1 55.8833 69.2667 55.8666 69.45 55.8666C69.8167 55.8666 70.1833 55.8666 70.55 55.8666C70.8833 55.8666 71.2167 55.8999 71.55 55.9166C71.9 55.9499 72.25 55.9833 72.6 56.0166C72.9 56.0499 73.1833 56.1166 73.4833 56.1666C73.85 56.2333 74.2 56.2999 74.55 56.3833C74.8667 56.4666 75.1833 56.5499 75.4833 56.6499C75.7833 56.7333 76.1 56.8166 76.4 56.9333C77.0167 57.1499 77.6167 57.3999 78.2167 57.6833C84.8667 60.8333 89.1667 67.6333 89.1667 74.9999C89.1667 80.1166 87.1667 84.9333 83.55 88.5499Z" fill="#000038"/>
<path d="M44.1666 32.5H65.8333C66.5166 32.5 67.0833 31.9333 67.0833 31.25C67.0833 30.5667 66.5166 30 65.8333 30H44.1666C43.4833 30 42.9166 30.5667 42.9166 31.25C42.9166 31.9333 43.4833 32.5 44.1666 32.5Z" fill="#000038"/>
<path d="M44.1666 40.1167H65.8333C66.5166 40.1167 67.0833 39.55 67.0833 38.8667C67.0833 38.1834 66.5166 37.6167 65.8333 37.6167H44.1666C43.4833 37.6167 42.9166 38.1834 42.9166 38.8667C42.9166 39.55 43.4833 40.1167 44.1666 40.1167Z" fill="#000038"/>
<path d="M81.1172 80.1708C79.8922 80.1708 79.1455 79.2608 79.1455 78.1525C79.1455 76.7525 80.2422 75.9941 82.8322 75.7141C82.7855 75.1775 82.5055 74.8625 81.8288 74.8625C81.3038 74.8625 80.7555 75.0725 80.0905 75.4458L79.3672 74.0808C80.2422 73.5558 81.1872 73.2058 82.2255 73.2058C83.9405 73.2058 84.9088 74.1625 84.9088 76.2391V80.0075H83.2172L83.0655 79.3425H83.0188C82.4705 79.8325 81.8522 80.1708 81.1172 80.1708ZM81.8288 78.5608C82.2488 78.5608 82.5288 78.3625 82.8322 78.0358V76.9741C81.5372 77.1491 81.1172 77.5225 81.1172 77.9891C81.1172 78.3741 81.3972 78.5608 81.8288 78.5608Z" fill="#000038"/>
<path d="M77.1287 80.1708C75.4604 80.1708 74.7837 79.1208 74.7837 77.5458V74.9908H73.8854V73.4508L74.9004 73.3691L75.1337 71.6191H76.8604V73.3691H78.4237V74.9908H76.8604V77.5225C76.8604 78.2575 77.2104 78.5491 77.7004 78.5491C77.9104 78.5491 78.1437 78.4791 78.307 78.4325L78.6337 79.9258C78.2837 80.0308 77.8054 80.1708 77.1287 80.1708Z" fill="#000038"/>
<path d="M70.7005 80.1708C68.7989 80.1708 67.3289 78.8875 67.3289 76.6941C67.3289 74.5358 68.8689 73.2058 70.4789 73.2058C72.3922 73.2058 73.3255 74.5941 73.3255 76.4141C73.3255 76.7758 73.2789 77.1491 73.2322 77.3008H69.3355C69.5222 78.2108 70.1522 78.5841 70.9922 78.5841C71.4705 78.5841 71.9139 78.4441 72.3922 78.1641L73.0805 79.4125C72.3922 79.9025 71.4822 80.1708 70.7005 80.1708ZM69.3005 75.9475H71.5639C71.5639 75.2825 71.2722 74.7925 70.5139 74.7925C69.9422 74.7925 69.4405 75.1541 69.3005 75.9475Z" fill="#000038"/>
<path d="M59.7535 80.0074V71.3274H62.7869C64.5835 71.3274 66.0185 71.8057 66.0185 73.4741C66.0185 74.2441 65.5869 75.0841 64.8869 75.3524V75.3991C65.7619 75.6324 66.4269 76.2857 66.4269 77.4407C66.4269 79.2141 64.9219 80.0074 63.0319 80.0074H59.7535ZM61.8419 74.7691H62.7052C63.5919 74.7691 63.9885 74.3841 63.9885 73.7891C63.9885 73.1707 63.5802 72.9141 62.7052 72.9141H61.8419V74.7691ZM61.8419 78.4091H62.8802C63.8835 78.4091 64.3969 78.0474 64.3969 77.3007C64.3969 76.5891 63.8952 76.3091 62.8802 76.3091H61.8419V78.4091Z" fill="#000038"/>
<path d="M55.8419 80.0075V73.3692H57.9068V80.0075H55.8419ZM56.8802 72.4475C56.1802 72.4475 55.6902 72.0042 55.6902 71.3858C55.6902 70.7558 56.1802 70.3125 56.8802 70.3125C57.5685 70.3125 58.0585 70.7558 58.0585 71.3858C58.0585 72.0042 57.5685 72.4475 56.8802 72.4475Z" fill="#000038"/>
</svg>
