<svg width="100" height="100" viewBox="0 0 100 100" fill="none" xmlns="http://www.w3.org/2000/svg">
<path d="M33.3387 43.3261C35.18 43.3261 36.6727 41.834 36.6727 39.9935C36.6727 38.1528 35.18 36.6606 33.3387 36.6606C31.4973 36.6606 30.0048 38.1528 30.0048 39.9935C30.0048 41.834 31.4973 43.3261 33.3387 43.3261Z" fill="#000038"/>
<path d="M60.0101 43.3261C61.8513 43.3261 63.344 41.834 63.344 39.9935C63.344 38.1528 61.8513 36.6606 60.0101 36.6606C58.1688 36.6606 56.6761 38.1528 56.6761 39.9935C56.6761 41.834 58.1688 43.3261 60.0101 43.3261Z" fill="#000038"/>
<path d="M46.7077 65.2722C39.1064 65.2722 32.2885 61.0562 28.9045 54.2574C28.5879 53.6409 28.8545 52.891 29.4714 52.5744C30.0882 52.2579 30.8382 52.5244 31.155 53.141C34.1222 59.0732 40.0899 62.7725 46.7244 62.7725C48.9249 62.7725 51.0919 62.356 53.1255 61.5562C53.7757 61.3062 54.4925 61.6229 54.7425 62.256C54.9925 62.8892 54.6759 63.6224 54.0424 63.8724C51.7087 64.8055 49.2415 65.2722 46.7077 65.2722Z" fill="#000038"/>
<path d="M46.6743 83.319C26.4541 83.319 10.0012 66.872 10.0012 46.659C10.0012 26.4458 26.4541 9.99878 46.6743 9.99878C66.8946 9.99878 83.3476 26.4458 83.3476 46.659C83.3476 48.6918 83.1476 50.7748 82.7641 53.0411L82.4975 54.5575L81.0638 53.991C78.5801 53.0078 75.9796 52.4911 73.3458 52.4911C61.8605 52.4911 52.5088 61.8395 52.5088 73.3208C52.5088 75.9536 53.0088 78.5531 54.009 81.0361L54.5758 82.4691L53.0588 82.7358C50.8085 83.1358 48.7081 83.319 46.6743 83.319ZM46.6743 12.4983C27.8376 12.4983 12.5016 27.829 12.5016 46.659C12.5016 65.4888 27.8376 80.8195 46.6743 80.8195C48.1246 80.8195 49.5916 80.7195 51.1418 80.5028C50.3916 78.17 50.0083 75.7703 50.0083 73.3208C50.0083 60.4565 60.4768 49.9916 73.3458 49.9916C75.7796 49.9916 78.1966 50.375 80.5305 51.1248C80.7471 49.5583 80.8471 48.092 80.8471 46.659C80.8471 27.829 65.5111 12.4983 46.6743 12.4983Z" fill="#000038"/>
<path d="M73.3459 96.6499C63.7442 96.6499 55.2427 90.8842 51.6754 81.9692L53.9924 81.0361C57.1764 89.0012 64.761 94.1504 73.3292 94.1504C84.8145 94.1504 94.1662 84.8021 94.1662 73.3207C94.1662 64.7556 89.0154 57.1736 81.0472 53.9909L81.9807 51.6746C90.899 55.2406 96.6667 63.7391 96.6667 73.3374C96.6667 86.2017 86.1982 96.6666 73.3292 96.6666L73.3459 96.6499Z" fill="#000038"/>
<path d="M51.692 81.9694C50.5752 79.1865 50.025 76.287 50.025 73.3209C50.025 60.4565 60.4935 49.9917 73.3625 49.9917C76.313 49.9917 79.2302 50.5582 82.014 51.658L81.0805 53.9744C78.5969 52.9912 75.9964 52.4745 73.3625 52.4745C61.8772 52.4745 52.5255 61.8229 52.5255 73.3042C52.5255 75.937 53.0255 78.5365 54.0257 81.0195L51.7087 81.9527L51.692 81.9694Z" fill="#000038"/>
<path d="M73.3458 58.3235C65.061 58.3235 58.3431 65.039 58.3431 73.3208C58.3431 81.6027 65.061 88.3182 73.3458 88.3182C81.6306 88.3182 88.3485 81.6027 88.3485 73.3208C88.3485 65.039 81.6306 58.3235 73.3458 58.3235ZM80.8638 69.9048L73.2958 80.2363L66.628 73.6042C66.1445 73.1208 66.1445 72.321 66.628 71.8378C67.1113 71.3545 67.9115 71.3545 68.395 71.8378L72.9958 76.4203L78.8468 68.4217C79.2468 67.8718 80.0303 67.7385 80.5971 68.1552C81.1471 68.555 81.2805 69.3382 80.8638 69.9048Z" fill="#000038"/>
<path d="M4.58353 14.5813C3.90008 14.5813 3.33331 14.0147 3.33331 13.3315V4.99962C3.33331 4.08312 4.08345 3.33325 5.00028 3.33325H13.3351C14.0185 3.33325 14.5853 3.89982 14.5853 4.58304C14.5853 5.26624 14.0185 5.8328 13.3351 5.8328H5.83376V13.3315C5.83376 14.0147 5.267 14.5813 4.58353 14.5813Z" fill="#000038"/>
<path d="M88.7653 14.5813C88.0818 14.5813 87.515 14.0147 87.515 13.3315V5.8328H80.0137C79.3302 5.8328 78.7635 5.26624 78.7635 4.58304C78.7635 3.89982 79.3302 3.33325 80.0137 3.33325H88.3485C89.2653 3.33325 90.0155 4.08312 90.0155 4.99962V13.3315C90.0155 14.0147 89.4487 14.5813 88.7653 14.5813Z" fill="#000038"/>
<path d="M13.3351 89.9846H5.00028C4.08345 89.9846 3.33331 89.2514 3.33331 88.3182V79.9864C3.33331 79.3032 3.90008 78.7366 4.58353 78.7366C5.267 78.7366 5.83376 79.3032 5.83376 79.9864V87.4851H13.3351C14.0185 87.4851 14.5853 88.0516 14.5853 88.7349C14.5853 89.4181 14.0185 89.9846 13.3351 89.9846Z" fill="#000038"/>
</svg>
