<svg width="100" height="100" viewBox="0 0 100 100" fill="none" xmlns="http://www.w3.org/2000/svg">
<path d="M33.3333 43.3334C35.1743 43.3334 36.6667 41.8411 36.6667 40.0001C36.6667 38.1591 35.1743 36.6667 33.3333 36.6667C31.4923 36.6667 30 38.1591 30 40.0001C30 41.8411 31.4923 43.3334 33.3333 43.3334Z" fill="#000038"/>
<path d="M60 43.3334C61.841 43.3334 63.3333 41.8411 63.3333 40.0001C63.3333 38.1591 61.841 36.6667 60 36.6667C58.159 36.6667 56.6666 38.1591 56.6666 40.0001C56.6666 41.8411 58.159 43.3334 60 43.3334Z" fill="#000038"/>
<path d="M82.8833 52.0667C83.1667 50.1833 83.3333 48.3833 83.3333 46.6667C83.3333 45.6333 83.2833 44.6 83.2 43.5833C83.25 43.3667 83.2167 43.15 83.15 42.95C81.2833 24.4667 65.6333 10 46.6667 10C27.7 10 12.4167 24.1667 10.2667 42.35C10.2 42.9667 10.1333 43.5833 10.1 44.2C10.05 45.0167 10 45.8333 10 46.6667C10 66.8833 26.45 83.3333 46.6667 83.3333C48.4 83.3333 50.2 83.1667 52.0667 82.8833C55.8333 91.2833 64.0667 96.6667 73.3333 96.6667C86.2 96.6667 96.6667 86.2 96.6667 73.3333C96.6667 64.0667 91.2833 55.8333 82.8833 52.0667ZM78.7 50.6333L80.8167 47.4C80.7833 48.6 80.7 49.8333 80.5167 51.1333C80.4 51.1 80.2667 51.0667 80.1333 51.0333C79.9 50.9667 79.6667 50.9 79.4333 50.8333C79.1833 50.7667 78.95 50.6833 78.7 50.6333ZM46.6667 12.5C64.3 12.5 78.85 25.9333 80.65 43.0833L76.0167 50.1667L75.8167 50.4667C75.4 50.3167 74.9333 50.1833 74.5167 50.0333C66.2167 47.2833 57.5667 45.75 48.8333 45.5333C38.1667 45.2667 27.6333 46.95 17.5167 50.4833L12.6667 43.5C14.2667 26.15 28.9 12.5 46.6667 12.5ZM15.7667 52.3667V61.15C13.8333 57.05 12.7 52.5333 12.55 47.75L15.7667 52.3833V52.3667ZM46.6667 80.8333C34.8333 80.8333 24.4 74.7833 18.2667 65.6333V52.8667C28.1167 49.4167 38.3667 47.7667 48.7667 48.05C55.2167 48.2167 61.5833 49.1 67.8167 50.7C61.6167 52.2167 56.3833 56.2 53.2333 61.55C52.65 62.5333 52.1333 63.5667 51.7 64.6333C50.6167 67.3167 50 70.25 50 73.3333C50 74.0167 50.0333 74.7 50.1 75.3667C50.1167 75.5833 50.15 75.8 50.1833 76.0167C50.2333 76.4667 50.3 76.9333 50.3833 77.3833C50.4333 77.6333 50.4833 77.8833 50.5333 78.1333C50.6333 78.5667 50.7333 79 50.85 79.4167C50.9167 79.65 50.9833 79.8833 51.05 80.1333C51.0833 80.25 51.1167 80.3833 51.15 80.5C49.6 80.7167 48.1167 80.8167 46.6833 80.8167L46.6667 80.8333ZM73.3333 94.1667C64.7667 94.1667 57.1833 89.0167 54 81.05C53.0167 78.5667 52.5 75.9667 52.5 73.3333C52.5 61.85 61.85 52.5 73.3333 52.5C73.5833 52.5 73.8167 52.5333 74.0667 52.5333C75.1333 52.5667 76.1833 52.6667 77.2333 52.8667C78.5333 53.1167 79.8 53.4833 81.05 53.9833C89.0167 57.1667 94.1667 64.7667 94.1667 73.3167C94.1667 84.8 84.8167 94.15 73.3333 94.15V94.1667Z" fill="#000038"/>
<path d="M73.3334 58.3333C65.05 58.3333 58.3334 65.0499 58.3334 73.3333C58.3334 81.6166 65.05 88.3333 73.3334 88.3333C81.6167 88.3333 88.3334 81.6166 88.3334 73.3333C88.3334 65.0499 81.6167 58.3333 73.3334 58.3333ZM80.85 69.9166L73.2834 80.2499L66.6167 73.6166C66.1334 73.1332 66.1334 72.3333 66.6167 71.8499C67.1 71.3666 67.9 71.3666 68.3834 71.8499L72.9834 76.4333L78.8334 68.4333C79.2334 67.8833 80.0167 67.7499 80.5834 68.1666C81.1334 68.5666 81.2667 69.3499 80.85 69.9166Z" fill="#000038"/>
<path d="M4.58337 14.5833C5.26671 14.5833 5.83337 14.0166 5.83337 13.3333V5.83325H13.3334C14.0167 5.83325 14.5834 5.26659 14.5834 4.58325C14.5834 3.89992 14.0167 3.33325 13.3334 3.33325H5.00004C4.08337 3.33325 3.33337 4.08325 3.33337 4.99992V13.3333C3.33337 14.0166 3.90004 14.5833 4.58337 14.5833Z" fill="#000038"/>
<path d="M80 5.83325H87.5V13.3333C87.5 14.0166 88.0667 14.5833 88.75 14.5833C89.4333 14.5833 90 14.0166 90 13.3333V4.99992C90 4.08325 89.25 3.33325 88.3333 3.33325H80C79.3167 3.33325 78.75 3.89992 78.75 4.58325C78.75 5.26659 79.3167 5.83325 80 5.83325Z" fill="#000038"/>
<path d="M13.3334 87.5H5.83337V80C5.83337 79.3167 5.26671 78.75 4.58337 78.75C3.90004 78.75 3.33337 79.3167 3.33337 80V88.3333C3.33337 89.25 4.08337 90 5.00004 90H13.3334C14.0167 90 14.5834 89.4333 14.5834 88.75C14.5834 88.0667 14.0167 87.5 13.3334 87.5Z" fill="#000038"/>
</svg>
