<?xml version="1.0" encoding="UTF-8"?>
<svg id="Layer_1" xmlns="http://www.w3.org/2000/svg" version="1.1" viewBox="0 0 24 24">
  <!-- Generator: Adobe Illustrator 29.5.1, SVG Export Plug-In . SVG Version: 2.1.0 Build 141)  -->
  <defs>
    <style>
      .st0 {
        fill: #8d8dff;
      }
    </style>
  </defs>
  <path class="st0" d="M18.13,13.75v-3h-3v-1.5h3v-3h1.5v3h3v1.5h-3v3h-1.5ZM9,11.69c-.96,0-1.79-.34-2.47-1.03-.69-.69-1.03-1.51-1.03-2.47s.34-1.79,1.03-2.47c.69-.69,1.51-1.03,2.47-1.03s1.79.34,2.47,1.03c.69.69,1.03,1.51,1.03,2.47s-.34,1.79-1.03,2.47c-.69.69-1.51,1.03-2.47,1.03ZM1.5,19.31v-2.22c0-.49.13-.94.4-1.36s.62-.74,1.07-.96c.99-.48,1.99-.85,2.99-1.09,1.01-.24,2.02-.36,3.04-.36s2.04.12,3.04.36c1.01.24,2,.61,2.99,1.09.44.22.8.55,1.07.96s.4.87.4,1.36v2.22H1.5ZM3,17.81h12v-.72c0-.2-.06-.39-.18-.56-.12-.17-.28-.31-.48-.42-.86-.42-1.74-.75-2.64-.96-.9-.22-1.8-.33-2.71-.33-.91,0-1.82.11-2.71.33-.9.22-1.77.54-2.64.96-.2.11-.36.25-.48.42-.12.17-.18.36-.18.56,0,0,0,.72,0,.72ZM9,10.19c.55,0,1.02-.2,1.41-.59.39-.39.59-.86.59-1.41s-.2-1.02-.59-1.41c-.39-.39-.86-.59-1.41-.59s-1.02.2-1.41.59c-.39.39-.59.86-.59,1.41s.2,1.02.59,1.41c.39.39.86.59,1.41.59Z"/>
</svg>