<?xml version="1.0" encoding="UTF-8"?>
<svg id="Layer_1" xmlns="http://www.w3.org/2000/svg" version="1.1" viewBox="0 0 24 24">
  <!-- Generator: Adobe Illustrator 29.5.1, SVG Export Plug-In . SVG Version: 2.1.0 Build 141)  -->
  <defs>
    <style>
      .st0 {
        fill: #8d8dff;
      }
    </style>
  </defs>
  <path class="st0" d="M12,4.5c2.09,0,3.87.73,5.32,2.18,1.45,1.45,2.18,3.23,2.18,5.32s-.73,3.87-2.18,5.32c-1.45,1.45-3.23,2.18-5.32,2.18s-3.87-.73-5.32-2.18c-1.45-1.45-2.18-3.23-2.18-5.32s.73-3.87,2.18-5.32c1.45-1.45,3.23-2.18,5.32-2.18ZM12,18c1.67,0,3.08-.58,4.25-1.75s1.75-2.58,1.75-4.25-.58-3.08-1.75-4.25-2.58-1.75-4.25-1.75-3.08.58-4.25,1.75-1.75,2.58-1.75,4.25.58,3.08,1.75,4.25,2.58,1.75,4.25,1.75ZM12,15.31c.76,0,1.44-.21,2.04-.63.61-.42,1.05-.98,1.32-1.68h-6.73c.27.7.71,1.26,1.32,1.68.61.42,1.29.63,2.04.63ZM8.63,10c0,.26.09.47.26.64.17.17.39.26.65.26s.47-.09.64-.26c.17-.17.26-.39.26-.65,0-.26-.09-.47-.26-.64-.17-.17-.39-.26-.65-.26s-.47.09-.64.26c-.17.17-.26.39-.26.65ZM13.56,10c0,.26.09.47.26.64.17.17.39.26.65.26s.47-.09.64-.26c.17-.17.26-.39.26-.65s-.09-.47-.26-.64c-.17-.17-.39-.26-.65-.26s-.47.09-.64.26c-.17.17-.26.39-.26.65ZM1.5,6v-2.69c0-.5.18-.92.53-1.28s.78-.53,1.28-.53h2.69v1.5h-2.69c-.09,0-.16.03-.22.09-.06.06-.09.13-.09.22v2.69h-1.5ZM6,22.5h-2.69c-.5,0-.92-.18-1.28-.53-.35-.35-.53-.78-.53-1.28v-2.69h1.5v2.69c0,.09.03.16.09.22.06.06.13.09.22.09h2.69v1.5ZM18,22.4v-1.5h2.69c.09,0,.16-.03.22-.09.06-.06.09-.13.09-.22v-2.69h1.5v2.69c0,.5-.18.92-.53,1.28-.35.35-.78.53-1.28.53,0,0-2.69,0-2.69,0ZM21,6v-2.69c0-.09-.03-.16-.09-.22-.06-.06-.13-.09-.22-.09h-2.69v-1.5h2.69c.5,0,.92.18,1.28.53s.53.78.53,1.28v2.69h-1.5Z"/>
</svg>