<svg width="16" height="12" viewBox="0 0 16 12" fill="none" xmlns="http://www.w3.org/2000/svg">
<path d="M1.01599 6.02401C1.01696 5.87669 1.07129 5.73471 1.16893 5.62439C1.26656 5.51406 1.40088 5.44287 1.54699 5.42401L1.62999 5.41801L12.422 5.41801L8.52199 1.58101C8.46484 1.52513 8.41944 1.45839 8.38844 1.38472C8.35744 1.31105 8.34147 1.23193 8.34147 1.15201C8.34147 1.07208 8.35744 0.992957 8.38844 0.919288C8.41944 0.845618 8.46484 0.778885 8.52199 0.723006C8.6266 0.619833 8.76446 0.557165 8.91098 0.546176C9.0575 0.535187 9.20316 0.576591 9.32199 0.663006L9.39099 0.722006L14.342 5.59401C14.3731 5.62429 14.401 5.65781 14.425 5.69401L14.445 5.72701L14.461 5.75701L14.481 5.80201L14.494 5.83701L14.507 5.88301L14.514 5.91501L14.516 5.96301V6.00001V6.04701V6.08301V6.02401C14.5162 6.06157 14.5128 6.09907 14.506 6.13601L14.5 6.16201L14.485 6.21501L14.475 6.24201L14.451 6.29501L14.438 6.32001L14.416 6.35801L14.397 6.38501L14.392 6.39201C14.3754 6.41351 14.3573 6.43389 14.338 6.45301L9.38899 11.327C9.27322 11.4408 9.11736 11.5046 8.95499 11.5046C8.79263 11.5046 8.63676 11.4408 8.52099 11.327C8.41701 11.2248 8.35377 11.0883 8.3431 10.9429C8.33242 10.7976 8.37504 10.6533 8.46299 10.537L8.52299 10.469L12.423 6.63301L1.62999 6.63301C1.54963 6.63353 1.46996 6.61818 1.39556 6.58782C1.32115 6.55746 1.25348 6.5127 1.19642 6.45611C1.13937 6.39952 1.09406 6.33222 1.06309 6.25806C1.03213 6.18391 1.01612 6.10437 1.01599 6.02401Z" fill="#000038" stroke="#000038" stroke-width="0.5"/>
</svg>
