<svg width="20" height="20" viewBox="0 0 20 20" fill="none" xmlns="http://www.w3.org/2000/svg">
<path d="M13.2907 9.23008C13.4314 9.37073 13.5104 9.5615 13.5104 9.76041C13.5104 9.95932 13.4314 10.1501 13.2907 10.2907L7.28033 16.3011C7.21069 16.3708 7.12801 16.426 7.03701 16.4637C6.94602 16.5014 6.84849 16.5208 6.75 16.5208C6.65151 16.5208 6.55398 16.5014 6.46299 16.4637C6.37199 16.426 6.28931 16.3708 6.21967 16.3011C6.15003 16.2315 6.09478 16.1488 6.05709 16.0578C6.0194 15.9668 6 15.8693 6 15.7708C6 15.6723 6.0194 15.5748 6.05709 15.4838C6.09478 15.3928 6.15003 15.3101 6.21967 15.2405L11.6997 9.76041L6.21967 4.28033C6.07902 4.13968 6 3.94891 6 3.75C6 3.55109 6.07902 3.36032 6.21967 3.21967C6.36032 3.07902 6.55109 3 6.75 3C6.94891 3 7.13968 3.07902 7.28033 3.21967L13.2907 9.23008Z" fill="#000038"/>
</svg>
