<?xml version="1.0" encoding="UTF-8"?>
<svg id="Layer_1" xmlns="http://www.w3.org/2000/svg" version="1.1" viewBox="0 0 38 38">
  <!-- Generator: Adobe Illustrator 29.5.1, SVG Export Plug-In . SVG Version: 2.1.0 Build 141)  -->
  <defs>
    <style>
      .st0 {
        fill: #88909d;
      }
    </style>
  </defs>
  <path class="st0" d="M30.93,18.15l-11.08-11.08s-.07-.04-.11-.07c-.09-.07-.18-.14-.28-.19-.15-.06-.3-.09-.46-.09,0,0,0,0,0,0-.01,0-.02,0-.04,0-.14,0-.28.03-.42.08-.15.06-.28.15-.39.26l-11.08,11.08c-.47.47-.47,1.23,0,1.7.47.47,1.23.47,1.7,0l9.03-9.03v19.27c0,.66.54,1.2,1.2,1.2s1.2-.54,1.2-1.2V10.81l9.04,9.04c.23.23.54.35.85.35s.61-.12.85-.35c.47-.47.47-1.23,0-1.7Z"/>
</svg>