<?xml version="1.0" encoding="UTF-8"?>
<svg id="Layer_1" xmlns="http://www.w3.org/2000/svg" version="1.1" viewBox="0 0 20 20">
  <!-- Generator: Adobe Illustrator 29.5.1, SVG Export Plug-In . SVG Version: 2.1.0 Build 141)  -->
  <defs>
    <style>
      .st0 {
        fill: #000038;
      }
    </style>
  </defs>
  <path class="st0" d="M12.23,3.22c.14-.14.33-.22.53-.22s.39.08.53.22c.14.14.22.33.22.53,0,.2-.08.39-.22.53l-5.48,5.48,5.48,5.48c.07.07.12.15.16.24.04.09.06.19.06.29s-.02.2-.06.29c-.04.09-.09.17-.16.24-.07.07-.15.12-.24.16-.09.04-.19.06-.29.06s-.2-.02-.29-.06c-.09-.04-.17-.09-.24-.16l-6.01-6.01c-.14-.14-.22-.33-.22-.53s.08-.39.22-.53l6.01-6.01Z"/>
</svg>