<svg width="30" height="31" viewBox="0 0 30 31" fill="none" xmlns="http://www.w3.org/2000/svg">
<path d="M16.259 13.4595C16.1469 13.4572 16.0355 13.4781 15.9318 13.521C15.8281 13.5638 15.7344 13.6275 15.6565 13.7083C15.5787 13.789 15.5184 13.885 15.4794 13.9902C15.4404 14.0953 15.4236 14.2074 15.4299 14.3194C15.4299 14.544 15.5192 14.7594 15.678 14.9182C15.8368 15.077 16.0522 15.1662 16.2768 15.1662C16.5014 15.1662 16.7167 15.077 16.8756 14.9182C17.0344 14.7594 17.1236 14.544 17.1236 14.3194C17.1294 14.2045 17.111 14.0897 17.0696 13.9825C17.0281 13.8752 16.9645 13.7778 16.883 13.6967C16.8014 13.6156 16.7037 13.5526 16.5962 13.5117C16.4887 13.4709 16.3738 13.4531 16.259 13.4595Z" fill="#000038"/>
<path d="M24.6277 7.44065C24.2314 7.04306 23.7602 6.72785 23.2415 6.51319C22.7227 6.29854 22.1666 6.18868 21.6052 6.18995H8.39476C7.83346 6.18949 7.27758 6.2997 6.75892 6.51428C6.24026 6.72886 5.769 7.04361 5.3721 7.4405C4.97521 7.8374 4.66046 8.30866 4.44588 8.82732C4.2313 9.34598 4.12109 9.90186 4.12155 10.4632V16.8209C4.12109 17.3822 4.2313 17.938 4.44588 18.4567C4.66046 18.9754 4.97521 19.4466 5.3721 19.8435C5.769 20.2404 6.24026 20.5552 6.75892 20.7697C7.27758 20.9843 7.83346 21.0945 8.39476 21.0941H13.2673L14.6743 23.9555C14.6972 24.0238 14.7409 24.0832 14.7993 24.1252C14.8578 24.1673 14.928 24.1899 15 24.1899C15.072 24.1899 15.1422 24.1673 15.2006 24.1252C15.2591 24.0832 15.3028 24.0238 15.3257 23.9555L16.7327 21.0893H21.6052C22.1661 21.0898 22.7216 20.9797 23.24 20.7655C23.7583 20.5512 24.2294 20.2368 24.6262 19.8405C25.023 19.4441 25.3379 18.9734 25.5527 18.4552C25.7676 17.9371 25.8783 17.3818 25.8784 16.8209V10.4632C25.8797 9.90175 25.7698 9.34565 25.5552 8.82689C25.3405 8.30814 25.0253 7.83701 24.6277 7.44065ZM8.91588 16.3755C8.69825 16.3849 8.48171 16.3399 8.28572 16.2449C8.08974 16.1498 7.92046 16.0075 7.7931 15.8307H7.76941V16.2476H6.44055V10.6456H7.7931V12.7774C7.9375 12.6175 8.11462 12.4905 8.31244 12.4051C8.51026 12.3196 8.72414 12.2778 8.93957 12.2824C9.19624 12.2906 9.44865 12.3503 9.68181 12.4579C9.91497 12.5655 10.1241 12.7189 10.2969 12.9089C10.4697 13.0989 10.6025 13.3216 10.6876 13.5639C10.7726 13.8062 10.8081 14.0632 10.7919 14.3195C10.8069 14.5784 10.77 14.8377 10.6833 15.0821C10.5966 15.3265 10.4618 15.5511 10.287 15.7427C10.1122 15.9343 9.90087 16.089 9.66539 16.1976C9.42992 16.3063 9.17508 16.3668 8.91588 16.3755ZM13.163 16.2453H11.8602V13.0167C11.8602 12.4174 11.756 11.8962 11.2349 11.8181V10.5153C12.3814 10.5153 13.163 11.3443 13.163 12.7561V16.2453ZM16.2898 16.3495C16.0057 16.3751 15.7194 16.3412 15.4491 16.2501C15.1788 16.1589 14.9305 16.0125 14.7199 15.82C14.5094 15.6276 14.3412 15.3934 14.2262 15.1324C14.1111 14.8714 14.0517 14.5893 14.0517 14.3041C14.0517 14.0188 14.1111 13.7367 14.2262 13.4757C14.3412 13.2147 14.5094 12.9805 14.7199 12.7881C14.9305 12.5957 15.1788 12.4492 15.4491 12.3581C15.7194 12.2669 16.0057 12.2331 16.2898 12.2587C16.574 12.2381 16.8594 12.2759 17.1285 12.3698C17.3976 12.4636 17.6447 12.6114 17.8545 12.8042C18.0644 12.997 18.2326 13.2306 18.3489 13.4908C18.4651 13.751 18.527 14.0322 18.5306 14.3171C18.529 14.6016 18.4683 14.8827 18.3524 15.1426C18.2364 15.4025 18.0678 15.6354 17.8571 15.8267C17.6465 16.018 17.3984 16.1634 17.1286 16.2538C16.8588 16.3442 16.5731 16.3776 16.2898 16.3518V16.3495ZM23.4813 15.9065C23.4813 17.522 22.6735 18.3297 21.2665 18.3297H21.0059V17.1075H21.2665C21.97 17.1075 22.1785 16.6645 22.1785 16.0131V15.8307C22.032 15.9968 21.8514 16.1293 21.6491 16.2193C21.4467 16.3092 21.2274 16.3544 21.0059 16.3518C20.756 16.3494 20.5091 16.2962 20.2803 16.1954C20.0515 16.0947 19.8456 15.9485 19.675 15.7657C19.5045 15.583 19.3728 15.3675 19.2881 15.1323C19.2033 14.8971 19.1672 14.6472 19.182 14.3976C19.1647 14.1347 19.2007 13.8709 19.2878 13.6222C19.3749 13.3735 19.5114 13.1449 19.6891 12.9502C19.8667 12.7556 20.0818 12.5988 20.3216 12.4893C20.5613 12.3798 20.8207 12.3199 21.0841 12.3131C21.2962 12.2968 21.5088 12.3362 21.7008 12.4277C21.8928 12.5191 22.0575 12.6593 22.1785 12.8343H22.2045V12.4174L23.4813 12.4434V15.9065Z" fill="#000038"/>
<path d="M21.3968 13.4337C21.2824 13.4279 21.168 13.4462 21.061 13.4873C20.9541 13.5285 20.857 13.5916 20.776 13.6727C20.6949 13.7537 20.6318 13.8508 20.5906 13.9577C20.5495 14.0647 20.5312 14.1791 20.537 14.2935C20.5291 14.4085 20.5459 14.5238 20.5863 14.6317C20.6268 14.7396 20.6898 14.8375 20.7713 14.919C20.8528 15.0005 20.9508 15.0636 21.0587 15.104C21.1666 15.1444 21.2819 15.1613 21.3968 15.1534C21.5101 15.16 21.6235 15.1421 21.7292 15.1008C21.8349 15.0595 21.9304 14.9958 22.0091 14.9142C22.0879 14.8325 22.1481 14.7347 22.1855 14.6276C22.2229 14.5204 22.2367 14.4065 22.2259 14.2935C22.2345 14.181 22.2192 14.068 22.181 13.9618C22.1428 13.8557 22.0826 13.7588 22.0043 13.6776C21.926 13.5964 21.8313 13.5326 21.7266 13.4906C21.6219 13.4486 21.5095 13.4292 21.3968 13.4337Z" fill="#000038"/>
<path d="M8.60317 15.1794C9.07805 15.1794 9.46302 14.7945 9.46302 14.3196C9.46302 13.8447 9.07805 13.4597 8.60317 13.4597C8.12829 13.4597 7.74332 13.8447 7.74332 14.3196C7.74332 14.7945 8.12829 15.1794 8.60317 15.1794Z" fill="#000038"/>
</svg>
