<svg width="38" height="38" viewBox="0 0 38 38" fill="none" xmlns="http://www.w3.org/2000/svg">
<path d="M15.4797 28.6712H7.91781C6.34831 28.6712 4.84301 28.0478 3.73323 26.938C2.62344 25.8282 2 24.3229 2 22.7534V10.9178C2 9.34831 2.62344 7.84311 3.73323 6.73332C4.84301 5.62354 6.34831 5 7.91781 5H29.6164C31.1859 5 32.6911 5.62354 33.8009 6.73332C34.9107 7.84311 35.5342 9.34831 35.5342 10.9178V22.7534C35.5342 24.3229 34.9107 25.8282 33.8009 26.938C32.6911 28.0478 31.1859 28.6712 29.6164 28.6712H22.0554L18.7671 32.6164L15.4797 28.6712Z" fill="white"/>
<path d="M11.3701 18.8085C12.1871 18.8085 12.8495 18.1462 12.8495 17.3291C12.8495 16.512 12.1871 15.8496 11.3701 15.8496C10.5529 15.8496 9.89062 16.512 9.89062 17.3291C9.89062 18.1462 10.5529 18.8085 11.3701 18.8085Z" fill="#000038"/>
<path d="M19.2607 18.8085C20.0778 18.8085 20.7402 18.1462 20.7402 17.3291C20.7402 16.512 20.0778 15.8496 19.2607 15.8496C18.4436 15.8496 17.7812 16.512 17.7812 17.3291C17.7812 18.1462 18.4436 18.8085 19.2607 18.8085Z" fill="#000038"/>
<path d="M27.1513 18.8085C27.9684 18.8085 28.6308 18.1462 28.6308 17.3291C28.6308 16.512 27.9684 15.8496 27.1513 15.8496C26.3342 15.8496 25.6719 16.512 25.6719 17.3291C25.6719 18.1462 26.3342 18.8085 27.1513 18.8085Z" fill="#000038"/>
</svg>
