<?xml version="1.0" encoding="UTF-8"?>
<svg id="Layer_1" xmlns="http://www.w3.org/2000/svg" version="1.1" viewBox="0 0 38 38">
  <!-- Generator: Adobe Illustrator 29.5.1, SVG Export Plug-In . SVG Version: 2.1.0 Build 141)  -->
  <defs>
    <style>
      .st0 {
        fill: #555;
      }
    </style>
  </defs>
  <path class="st0" d="M31.11,18.14l-11.25-11.25s-.07-.04-.11-.07c-.09-.07-.18-.15-.29-.19-.15-.06-.31-.09-.47-.09,0,0,0,0,0,0-.01,0-.03,0-.04,0-.14,0-.29.03-.42.09-.15.06-.29.15-.4.27l-11.25,11.25c-.48.48-.48,1.25,0,1.72.48.47,1.25.47,1.72,0l9.17-9.17v19.56c0,.67.55,1.22,1.22,1.22s1.22-.55,1.22-1.22V10.69l9.17,9.17c.24.24.55.36.86.36s.62-.12.86-.36c.48-.48.48-1.25,0-1.72Z"/>
</svg>