<svg width="30" height="31" viewBox="0 0 30 31" fill="none" xmlns="http://www.w3.org/2000/svg">
<g clip-path="url(#clip0_601_461)">
<g clip-path="url(#clip1_601_461)">
<mask id="mask0_601_461" style="mask-type:luminance" maskUnits="userSpaceOnUse" x="0" y="0" width="30" height="30">
<path d="M29.3516 0.320312H0.319305V29.3526H29.3516V0.320312Z" fill="white"/>
</mask>
<g mask="url(#mask0_601_461)">
<path d="M24.0401 22.1895H20.5159V16.6534C20.5159 15.3343 20.4904 13.6434 18.6778 13.6434C16.8391 13.6434 16.5599 15.0749 16.5599 16.5584V22.1895H13.0329V10.8186H16.42V12.3671H16.4711C16.8087 11.7866 17.2975 11.3088 17.8858 10.9849C18.4741 10.661 19.1398 10.5034 19.8109 10.5284C23.3838 10.5284 24.0409 12.8818 24.0409 15.9379V22.1848L24.0401 22.1895ZM7.29167 22.1895V10.8186H10.8215V22.1895H7.29167ZM7.0091 7.2042C7.0091 6.6611 7.22519 6.14039 7.60921 5.75636C7.99323 5.37234 8.51395 5.15625 9.05704 5.15625C9.32569 5.15638 9.59144 5.20964 9.83951 5.31266C10.0876 5.41566 10.3132 5.56664 10.503 5.75683C10.6928 5.94702 10.8429 6.17285 10.9453 6.4212C11.0477 6.66957 11.1008 6.93554 11.1003 7.2042C11.1011 7.74821 10.8866 8.27055 10.504 8.65722C10.1212 9.04389 9.60104 9.26336 9.05704 9.26821C8.51244 9.26437 7.99124 9.04539 7.60732 8.65911C7.2234 8.27283 7.00771 7.7507 7.0072 7.20608L7.0091 7.2042Z" fill="#000038"/>
</g>
</g>
</g>
<defs>
<clipPath id="clip0_601_461">
<rect width="30" height="30" fill="white" transform="translate(0 0.189941)"/>
</clipPath>
<clipPath id="clip1_601_461">
<rect width="30" height="30" fill="white" transform="translate(0 0.189941)"/>
</clipPath>
</defs>
</svg>
