<svg width="30" height="31" viewBox="0 0 30 31" fill="none" xmlns="http://www.w3.org/2000/svg">
<g clip-path="url(#clip0_601_452)">
<g clip-path="url(#clip1_601_452)">
<mask id="mask0_601_452" style="mask-type:luminance" maskUnits="userSpaceOnUse" x="0" y="0" width="30" height="30">
<path d="M29.3516 0.320312H0.319336V29.3526H29.3516V0.320312Z" fill="white"/>
</mask>
<g mask="url(#mask0_601_452)">
<path d="M25.0364 9.45581C24.9122 9.00159 24.6715 8.5877 24.3382 8.25516C24.0048 7.92262 23.5903 7.68299 23.1357 7.56C21.448 7.09839 14.697 7.09839 14.697 7.09839C14.697 7.09839 7.94705 7.09839 6.25931 7.54258C5.80513 7.67194 5.39182 7.91583 5.05899 8.25085C4.72618 8.58588 4.48503 9.00079 4.35867 9.45581C4.05243 11.168 3.90374 12.9046 3.91447 14.6439C3.90321 16.3828 4.0519 18.1193 4.35867 19.831C4.48207 20.2861 4.72244 20.701 5.05587 21.0344C5.3893 21.3679 5.80419 21.6083 6.25931 21.7316C7.96447 22.1933 14.697 22.1933 14.697 22.1933C14.697 22.1933 21.447 22.1933 23.1348 21.7491C23.5899 21.626 24.0048 21.386 24.3383 21.0529C24.6719 20.7198 24.9126 20.3052 25.0364 19.8504C25.3426 18.1385 25.4912 16.4022 25.4806 14.6633C25.5011 12.9172 25.3523 11.1732 25.0364 9.45581ZM12.5525 17.8752V11.4107L18.1654 14.6439L12.5525 17.8752Z" fill="#000038"/>
</g>
</g>
</g>
<defs>
<clipPath id="clip0_601_452">
<rect width="30" height="30" fill="white" transform="translate(0 0.189941)"/>
</clipPath>
<clipPath id="clip1_601_452">
<rect width="30" height="30" fill="white" transform="translate(0 0.189941)"/>
</clipPath>
</defs>
</svg>
