<svg width="180" height="27" viewBox="0 0 180 27" fill="none" xmlns="http://www.w3.org/2000/svg">
<mask id="mask0_5_1891" style="mask-type:luminance" maskUnits="userSpaceOnUse" x="0" y="0" width="180" height="26">
<path d="M179.334 0.174805H0.328125V25.1748H179.334V0.174805Z" fill="white"/>
</mask>
<g mask="url(#mask0_5_1891)">
<path d="M13.1747 10.1336L5.57239 25.4444H0.492188L13.1747 -0.0976562L25.8572 25.4444H20.7771L13.1747 10.1336Z" fill="#000038"/>
<path d="M47.4152 20.891V25.4449H35.1689C33.9006 25.4449 32.7044 25.1532 31.6183 24.606C30.024 23.8056 28.7197 22.4942 27.9598 20.891C27.4156 19.7989 27.1255 18.5959 27.1255 17.3206V-0.0610352H31.6542V17.757C31.8724 19.3602 33.1407 20.6355 34.735 20.8548L47.4176 20.891H47.4152Z" fill="#000038"/>
<path d="M53.2122 12.692C53.2122 17.2097 56.8707 20.8886 61.3636 20.8886H71.5096V25.4425H61.3636C54.3701 25.4425 48.681 19.7218 48.681 12.6895C48.681 5.65731 54.3701 -0.0610352 61.3636 -0.0610352H71.5096V4.49291H61.3636C56.8707 4.49291 53.2122 8.17175 53.2122 12.6895V12.692Z" fill="#000038"/>
<path d="M98.1405 -0.0610352V25.4449H93.6117V13.7503H79.8431V25.4449H75.3143V-0.0610352H79.8431V9.19392H93.6117V-0.0610352H98.1405Z" fill="#000038"/>
<path d="M106.446 6.79956V9.17176H124.774V13.7329H106.446V18.5496C106.446 19.8346 107.491 20.8857 108.769 20.8857H124.774V25.4469H108.769C105.017 25.4469 101.948 22.3611 101.948 18.5882V6.79715C101.946 3.005 105.033 -0.0976562 108.805 -0.0976562H124.774V4.46352H108.769C107.491 4.46352 106.446 5.51462 106.446 6.79956Z" fill="#000038"/>
<path d="M151.268 6.81644C151.268 2.99777 148.19 -0.0976562 144.392 -0.0976562H128.576V25.4444H133.112V13.7329H138.933C139.818 13.7329 140.614 14.2271 141.01 15.0227L143.924 20.8833L146.193 25.4444H151.266L145.401 13.6558C148.72 13.164 151.266 10.2903 151.266 6.81644H151.268ZM144.392 9.16935H133.112V4.46352H144.392C145.682 4.46352 146.732 5.51944 146.732 6.81644C146.732 8.11343 145.682 9.16935 144.392 9.16935Z" fill="#000038"/>
<path d="M166.487 10.1336L158.884 25.4444H153.805L166.487 -0.0976562L179.17 25.4444H174.09L166.487 10.1336Z" fill="#000038"/>
</g>
</svg>
