<?xml version="1.0" encoding="UTF-8"?>
<svg id="Layer_1" xmlns="http://www.w3.org/2000/svg" xmlns:xlink="http://www.w3.org/1999/xlink" version="1.1" viewBox="0 0 180 27">
  <!-- Generator: Adobe Illustrator 29.5.1, SVG Export Plug-In . SVG Version: 2.1.0 Build 141)  -->
  <defs>
    <style>
      .st0 {
        mask: url(#mask);
      }

      .st1 {
        fill: #fff;
      }
    </style>
    <mask id="mask" x=".33" y="-.1" width="179.01" height="25.54" maskUnits="userSpaceOnUse">
      <g id="mask0_5_1891">
        <path class="st1" d="M179.33.17H.33v25h179.01V.17Z"/>
      </g>
    </mask>
  </defs>
  <g class="st0">
    <g>
      <path class="st1" d="M13.17,10.13l-7.6,15.31H.49L13.17-.1l12.68,25.54h-5.08l-7.6-15.31Z"/>
      <path class="st1" d="M47.42,20.89v4.55h-12.25c-1.27,0-2.46-.29-3.55-.84-1.59-.8-2.9-2.11-3.66-3.72-.54-1.09-.83-2.3-.83-3.57V-.06h4.53v17.82c.22,1.6,1.49,2.88,3.08,3.1l12.68.04h0Z"/>
      <path class="st1" d="M53.21,12.69c0,4.52,3.66,8.2,8.15,8.2h10.15v4.55h-10.15c-6.99,0-12.68-5.72-12.68-12.75S54.37-.06,61.36-.06h10.15v4.55h-10.15c-4.49,0-8.15,3.68-8.15,8.2h0Z"/>
      <path class="st1" d="M98.14-.06v25.51h-4.53v-11.69h-13.77v11.69h-4.53V-.06h4.53v9.25h13.77V-.06h4.53Z"/>
      <path class="st1" d="M106.45,6.8v2.37h18.33v4.56h-18.33v4.82c0,1.28,1.04,2.34,2.32,2.34h16.01v4.56h-16.01c-3.75,0-6.82-3.09-6.82-6.86V6.8c0-3.79,3.08-6.89,6.86-6.89h15.97v4.56h-16.01c-1.28,0-2.32,1.05-2.32,2.34Z"/>
      <path class="st1" d="M151.27,6.82c0-3.82-3.08-6.91-6.88-6.91h-15.82v25.54h4.54v-11.71h5.82c.88,0,1.68.49,2.08,1.29l2.91,5.86,2.27,4.56h5.07l-5.87-11.79c3.32-.49,5.87-3.37,5.87-6.84h0ZM144.39,9.17h-11.28v-4.71h11.28c1.29,0,2.34,1.06,2.34,2.35s-1.05,2.35-2.34,2.35Z"/>
      <path class="st1" d="M166.49,10.13l-7.6,15.31h-5.08L166.49-.1l12.68,25.54h-5.08l-7.6-15.31Z"/>
    </g>
  </g>
</svg>