<svg width="100" height="100" viewBox="0 0 100 100" fill="none" xmlns="http://www.w3.org/2000/svg">
<path d="M75.8411 41.565C75.8411 41.565 75.8081 41.565 75.775 41.565L70.1372 23.6925C70.8812 22.9981 71.2945 22.0557 71.2945 21.0637C71.2945 19.0631 69.6742 17.4429 67.6737 17.4429C66.1857 17.4429 64.863 18.3522 64.3174 19.741H34.855C34.3094 18.3522 33.0033 17.4429 31.4988 17.4429C29.4982 17.4429 27.878 19.0631 27.878 21.0637C27.878 22.1714 28.3905 23.213 29.2502 23.8909L23.3478 41.5815C21.4961 41.7634 20.0742 43.2845 20.0742 45.1693C20.0742 46.9053 21.3142 48.3767 23.0172 48.7074L26.919 66.1831C25.8113 66.8279 25.15 68.0018 25.15 69.2749C25.15 71.2754 26.7702 72.8957 28.7707 72.8957C29.399 72.8957 30.0108 72.7303 30.5729 72.4162L40.0961 78.8477C40.0961 78.9469 40.0795 79.0295 40.0795 79.1287C40.0795 81.1295 41.6998 82.7495 43.7004 82.7495C45.0065 82.7495 46.1969 82.0551 46.8417 80.8975H53.5046C54.1494 82.0383 55.3233 82.7495 56.646 82.7495C58.6465 82.7495 60.2668 81.1295 60.2668 79.1287C60.2668 78.9469 60.2668 78.7815 60.2337 78.5997L69.079 72.4658C69.6081 72.7469 70.1867 72.8957 70.7654 72.8957C72.7659 72.8957 74.3862 71.2754 74.3862 69.2749C74.3862 68.101 73.8241 67.0263 72.8652 66.3485L76.2214 48.757C78.0566 48.5751 79.462 47.0375 79.462 45.1693C79.462 43.1687 77.8417 41.5485 75.8411 41.5485V41.565ZM32.3254 70.0023L37.1532 68.2994C37.7814 69.093 38.7238 69.5725 39.7489 69.6386L41.6172 76.1858C41.4353 76.3181 41.27 76.4669 41.1046 76.6322L32.1436 70.5645C32.2097 70.3826 32.2758 70.2007 32.3089 70.0023H32.3254ZM43.3697 67.2247H55.8193C56.1004 68.0183 56.6459 68.6962 57.3899 69.1426L56.1169 75.5741C54.5793 75.8055 53.3723 76.9959 53.1078 78.5335H47.2716C46.9905 76.9133 45.6182 75.6567 43.9814 75.541L42.1132 68.9773C42.7084 68.5474 43.1382 67.9522 43.3862 67.2578L43.3697 67.2247ZM59.7873 69.589C60.7793 69.4402 61.6555 68.8781 62.2011 68.0514L67.1446 69.3575C67.1446 69.8039 67.2604 70.2338 67.4422 70.6471L59.0929 76.4503C58.911 76.285 58.7126 76.1362 58.5142 76.0205L59.8038 69.5725L59.7873 69.589ZM67.9052 67.0594L62.8294 65.7202C62.6806 63.8685 61.11 62.4135 59.2417 62.4135C57.7041 62.4135 56.3484 63.4055 55.8358 64.8439H43.3862C42.8902 63.4055 41.518 62.4135 39.9804 62.4135C37.9798 62.4135 36.3596 64.0338 36.3596 66.0343L31.9948 67.5719C31.4657 66.5799 30.4902 65.9021 29.366 65.7202L25.4806 48.3271C25.7452 48.1783 25.9932 47.9965 26.2081 47.7981L39.534 54.3287C39.534 54.3287 39.534 54.3949 39.534 54.4445C39.534 56.445 41.1542 58.0653 43.1548 58.0653C43.998 58.0653 44.8081 57.7677 45.4529 57.2221L45.9324 57.4535C45.9324 57.4535 45.9324 57.5031 45.9324 57.5197C45.9324 59.5202 47.5526 61.1405 49.5532 61.1405C51.5537 61.1405 53.174 59.5202 53.174 57.5197L53.8849 57.1559C54.5462 57.7346 55.3729 58.0487 56.2492 58.0487C58.2497 58.0487 59.8699 56.4285 59.8699 54.4279C59.8699 54.3618 59.8699 54.3122 59.8699 54.2626L73.3446 47.7154C73.51 47.8807 73.6918 48.0295 73.8902 48.1618L70.5505 65.6706C69.5254 65.7367 68.583 66.2493 67.9382 67.0759L67.9052 67.0594ZM48.9745 39.6471H51.3883C51.6859 40.821 52.5622 41.7799 53.7196 42.1767L54.5462 51.2039C53.3393 51.8157 52.5788 53.0557 52.5788 54.4114C52.5788 54.6098 52.5953 54.7917 52.6283 55.0066L52.2646 55.1885C51.5868 54.3618 50.5617 53.8823 49.5035 53.8823C48.4454 53.8823 47.47 54.3453 46.7756 55.1389L46.6433 55.0727C46.6929 54.8413 46.7094 54.6263 46.7094 54.4114C46.7094 53.0722 45.9654 51.8487 44.7916 51.2205L46.0812 42.2925C47.47 42.0445 48.6108 41.0029 48.958 39.6306L48.9745 39.6471ZM72.2369 45.4834L58.8614 51.981C58.3654 51.4354 57.7041 51.0551 56.9766 50.8898L56.1665 42.1106C56.8774 41.8295 57.4892 41.3501 57.9025 40.7053L72.2204 44.9378C72.2204 44.9378 72.2204 45.0866 72.2204 45.1527C72.2204 45.2685 72.2203 45.3842 72.2369 45.4834ZM42.3942 50.8898C41.6337 51.0551 40.9393 51.4354 40.4268 52.0306L27.2993 45.5991C27.3158 45.4503 27.3324 45.3015 27.3324 45.1527C27.3324 45.0535 27.3324 44.9543 27.3158 44.8551L42.3777 40.6061C42.6918 41.1517 43.1548 41.5981 43.7004 41.8957L42.3942 50.8898ZM73.2123 42.6893L58.4646 38.341C58.382 37.6466 58.1174 37.0018 57.671 36.4727L66.7974 24.5522C67.1777 24.6514 67.4918 24.701 67.8556 24.6679L73.4769 42.4413C73.3777 42.5239 73.295 42.6066 73.2123 42.6893ZM55.5547 35.2162C55.3233 35.1666 55.0918 35.1501 54.8934 35.1501C53.4881 35.1501 52.1985 35.9933 51.6033 37.2829H48.7595C48.0486 35.6957 46.263 34.7698 44.4774 35.3154L34.6236 22.9154C34.7393 22.7005 34.8385 22.4855 34.9212 22.2375H64.2678C64.3835 22.5847 64.5489 22.8989 64.7638 23.1965L55.5547 35.2327V35.2162ZM41.9313 38.1922L26.2742 42.6066C26.1254 42.4578 25.9436 42.309 25.7617 42.1767L31.6145 24.6514C31.9948 24.6514 32.375 24.5687 32.7388 24.4365L42.51 36.7373C42.2124 37.1671 42.014 37.6631 41.9313 38.1922Z" fill="#0C254B"/>
<path d="M14.2868 3.91943H5.2926C4.36674 3.91943 3.6062 4.67997 3.6062 5.60583V14.6C3.6062 15.2778 4.16834 15.84 4.8462 15.84C5.52407 15.84 6.0862 15.2778 6.0862 14.6V6.39943H14.2868C14.9646 6.39943 15.5268 5.83731 15.5268 5.15943C15.5268 4.48157 14.9646 3.91943 14.2868 3.91943Z" fill="#0C254B"/>
<path d="M94.2923 3.91943H85.2979C84.6203 3.91943 84.0579 4.48157 84.0579 5.15943C84.0579 5.83731 84.6203 6.39943 85.2979 6.39943H93.4987V14.6C93.4987 15.2778 94.0611 15.84 94.7387 15.84C95.4163 15.84 95.9787 15.2778 95.9787 14.6V5.60583C95.9787 4.67997 95.2179 3.91943 94.2923 3.91943Z" fill="#0C254B"/>
<path d="M94.7387 84.3704C94.0611 84.3704 93.4987 84.9328 93.4987 85.6104V93.8112H85.2979C84.6203 93.8112 84.0579 94.3728 84.0579 95.0512C84.0579 95.7288 84.6203 96.2912 85.2979 96.2912H94.2923C95.2179 96.2912 95.9787 95.5304 95.9787 94.6048V85.6104C95.9787 84.9328 95.4163 84.3704 94.7387 84.3704Z" fill="#0C254B"/>
<path d="M14.2868 93.8112H6.0862V85.6104C6.0862 84.9328 5.52407 84.3704 4.8462 84.3704C4.16834 84.3704 3.6062 84.9328 3.6062 85.6104V94.6048C3.6062 95.5304 4.36674 96.2912 5.2926 96.2912H14.2868C14.9646 96.2912 15.5268 95.7288 15.5268 95.0512C15.5268 94.3728 14.9646 93.8112 14.2868 93.8112Z" fill="#0C254B"/>
</svg>
