<svg width="100" height="101" viewBox="0 0 100 101" fill="none" xmlns="http://www.w3.org/2000/svg">
<g clip-path="url(#clip0_550_2367)">
<path d="M85.6938 40.4826H64.2822C62.3271 40.4826 60.7057 38.8612 60.7057 36.906V15.4945C60.7057 13.5393 62.3271 11.918 64.2822 11.918H85.6938C87.6489 11.918 89.2703 13.5393 89.2703 15.4945V36.906C89.2703 38.8612 87.6489 40.4826 85.6938 40.4826ZM64.2822 14.5885C63.8054 14.5885 63.3762 14.9699 63.3762 15.4945V36.906C63.3762 37.3829 63.7577 37.8121 64.2822 37.8121H85.6938C86.1706 37.8121 86.5998 37.4306 86.5998 36.906V15.4945C86.5998 15.0176 86.2183 14.5885 85.6938 14.5885H64.2822Z" fill="#000038"/>
<path d="M84.5016 40.4826H65.4744C64.6161 40.4826 63.8054 40.1011 63.2808 39.3858C62.7563 38.7181 62.5655 37.9074 62.7563 37.0968C63.8054 32.7572 67.668 29.7529 72.1029 29.7529H77.8254C82.2603 29.7529 86.123 32.7572 87.1721 37.0968C87.3628 37.9074 87.1721 38.7181 86.6475 39.3858C86.123 40.0534 85.3123 40.4826 84.4539 40.4826H84.5016ZM72.1506 32.4711C68.9556 32.4711 66.142 34.6647 65.379 37.7644H84.5016H84.597C83.834 34.6647 81.0681 32.4711 77.8254 32.4711H72.1029H72.1506ZM74.9642 28.8946C72.0076 28.8946 69.6232 26.5102 69.6232 23.5536C69.6232 20.597 72.0076 18.2126 74.9642 18.2126C77.9208 18.2126 80.3051 20.597 80.3051 23.5536C80.3051 26.5102 77.9208 28.8946 74.9642 28.8946ZM74.9642 20.8354C73.4859 20.8354 72.2937 22.0276 72.2937 23.5059C72.2937 24.9842 73.4859 26.1764 74.9642 26.1764C76.4425 26.1764 77.6347 24.9842 77.6347 23.5059C77.6347 22.0276 76.4425 20.8354 74.9642 20.8354Z" fill="#000038"/>
<path d="M98.1879 74.4356H72.246V73.1004C72.246 73.1004 72.246 72.9096 72.246 72.8143C72.246 60.3679 62.2317 50.3536 49.9284 50.3536C37.6251 50.3536 27.6108 60.3679 27.6108 72.6712V74.4356H1.7167C0.715265 74.4356 -0.0477295 73.625 -0.0477295 72.6712V4.76467C-0.0477295 3.76324 0.762952 3.00024 1.7167 3.00024H98.1402C99.1416 3.00024 99.9046 3.81093 99.9046 4.76467V72.6235C99.9046 73.625 99.0939 74.3879 98.1402 74.3879L98.1879 74.4356ZM74.9642 71.7175H97.2818V5.67073H2.67044V71.7175H24.988C25.4649 58.3651 36.4806 47.6354 49.9761 47.6354C63.4716 47.6354 74.4873 58.3651 74.9642 71.7175Z" fill="#000038"/>
<path d="M49.9761 97.6116C36.4806 97.6116 25.2742 86.5959 24.988 73.1004H27.6585C27.897 85.1176 37.8636 94.9412 49.9761 94.9412C62.0887 94.9412 72.0553 85.1176 72.2937 73.0527H74.9642C74.7258 86.6436 63.5193 97.6116 49.9761 97.6116Z" fill="#000038"/>
<path d="M25.0358 73.1004C25.0358 72.862 25.0358 72.719 25.0358 72.6236C25.0358 58.842 36.2423 47.6355 50.0238 47.6355C63.8054 47.6355 75.0119 58.842 75.0119 72.6236C75.0119 72.719 75.0119 72.862 75.0119 72.9574L72.3414 73.0528C72.3414 73.0528 72.3414 72.862 72.3414 72.7666C72.3414 60.3203 62.3271 50.306 50.0238 50.306C37.7206 50.306 27.7062 60.3203 27.7062 72.6236V73.0528L25.0358 73.1004Z" fill="#000038"/>
<path d="M49.9761 56.553C41.1063 56.553 33.9055 63.7537 33.9055 72.6236C33.9055 81.4934 41.1063 88.6941 49.9761 88.6941C58.8459 88.6941 66.0467 81.4934 66.0467 72.6236C66.0467 63.7537 58.8459 56.553 49.9761 56.553ZM58.0352 68.9516L49.9284 80.0151L42.7753 72.9097C42.2508 72.3851 42.2508 71.5268 42.7753 71.0022C43.2999 70.4776 44.1583 70.4776 44.6828 71.0022L49.5946 75.914L55.8893 67.3303C56.3185 66.758 57.1769 66.615 57.7491 67.0442C58.369 67.4733 58.4644 68.3317 58.0352 68.904V68.9516Z" fill="#000038"/>
<path d="M42.8707 28.8946H10.7295C9.96653 28.8946 9.39429 28.2747 9.39429 27.5594C9.39429 26.8441 10.0142 26.2241 10.7295 26.2241H42.8707C43.6337 26.2241 44.2059 26.8441 44.2059 27.5594C44.2059 28.2747 43.586 28.8946 42.8707 28.8946Z" fill="#000038"/>
<path d="M24.9881 19.9769H10.6819C9.91893 19.9769 9.34668 19.3569 9.34668 18.6416C9.34668 17.9263 9.96661 17.3064 10.6819 17.3064H24.9881C25.7511 17.3064 26.3233 17.9263 26.3233 18.6416C26.3233 19.3569 25.7034 19.9769 24.9881 19.9769Z" fill="#000038"/>
<path d="M42.8707 37.8121H10.7295C9.96653 37.8121 9.39429 37.1922 9.39429 36.4768C9.39429 35.7615 10.0142 35.1416 10.7295 35.1416H42.8707C43.6337 35.1416 44.2059 35.7615 44.2059 36.4768C44.2059 37.1922 43.586 37.8121 42.8707 37.8121Z" fill="#000038"/>
</g>
<defs>
<clipPath id="clip0_550_2367">
<rect width="100" height="94.6114" fill="white" transform="translate(0 3)"/>
</clipPath>
</defs>
</svg>
